<?xml version="1.0" encoding="UTF-8" standalone="no"?>
<!-- Created with Inkscape (http://www.inkscape.org/) -->

<svg
   version="1.1"
   id="svg2"
   width="440.25333"
   height="65.866669"
   viewBox="0 0 440.25333 65.866669"
   sodipodi:docname="rugr_fse_logoen_rood_cmyk.eps"
   xmlns:inkscape="http://www.inkscape.org/namespaces/inkscape"
   xmlns:sodipodi="http://sodipodi.sourceforge.net/DTD/sodipodi-0.dtd"
   xmlns="http://www.w3.org/2000/svg"
   xmlns:svg="http://www.w3.org/2000/svg">
  <defs
     id="defs6" />
  <sodipodi:namedview
     id="namedview4"
     pagecolor="#ffffff"
     bordercolor="#000000"
     borderopacity="0.25"
     inkscape:showpageshadow="2"
     inkscape:pageopacity="0.0"
     inkscape:pagecheckerboard="0"
     inkscape:deskcolor="#d1d1d1" />
  <g
     id="g8"
     inkscape:groupmode="layer"
     inkscape:label="ink_ext_XXXXXX"
     transform="matrix(1.3333333,0,0,-1.3333333,0,65.866667)">
    <g
       id="g10"
       transform="scale(0.1)">
      <path
         d="m 848.914,289.926 h -0.324 c -3.711,-10.813 -13.879,-17.918 -30.184,-17.918 -15.988,0 -25.672,7.265 -25.672,22.281 v 37.774 c 0,10.812 -0.808,12.269 -7.261,12.269 H 779.5 v 8.395 c 8.23,0 22.598,0.968 32.93,1.937 v -55.859 c 0,-9.524 5.164,-14.203 14.371,-14.203 13.719,0 19.691,8.714 19.691,25.343 v 22.118 c 0,10.812 -0.808,12.269 -7.262,12.269 h -5.976 v 8.395 c 8.238,0 22.601,0.968 32.934,1.937 v -61.992 c 0,-7.426 0.804,-10.172 9.042,-10.172 h 4.196 v -7.91 h -30.512 v 15.336"
         style="fill:#ed1639;fill-opacity:1;fill-rule:nonzero;stroke:none"
         id="path12" />
      <path
         d="m 888.023,352.727 c 8.235,0 22.598,0.968 30.508,1.937 v -17.922 h 0.324 c 5.493,13.078 14.692,18.567 27.766,18.567 15.82,0 28.094,-7.106 28.094,-24.536 v -38.101 c 0,-7.426 0.805,-10.172 9.043,-10.172 h 4.191 v -7.91 h -44.23 v 7.91 h 2.258 c 8.234,0 9.039,2.746 9.039,10.172 v 33.418 c 0,11.461 -5.489,16.625 -14.203,16.625 -11.79,0 -19.86,-8.395 -19.86,-23.57 v -26.473 c 0,-7.426 0.813,-10.172 9.043,-10.172 h 2.262 v -7.91 h -45.203 v 7.91 h 5.164 c 8.23,0 9.043,2.746 9.043,10.172 v 39.391 c 0,10.812 -0.813,12.269 -7.266,12.269 h -5.973 v 8.395"
         style="fill:#ed1639;fill-opacity:1;fill-rule:nonzero;stroke:none"
         id="path14" />
      <path
         d="m 1019.21,392.441 c 7.59,0 11.79,-5.164 11.79,-12.109 0,-6.941 -4.2,-12.109 -11.79,-12.109 -7.59,0 -11.78,5.168 -11.78,12.109 0,6.945 4.19,12.109 11.78,12.109 z m -22.757,-39.714 c 8.227,0 22.597,0.968 32.927,1.937 v -61.992 c 0,-7.426 0.81,-10.172 9.04,-10.172 h 4.2 v -7.91 h -47.14 v 7.91 h 5.17 c 8.23,0 9.04,2.746 9.04,10.172 v 39.391 c 0,10.812 -0.81,12.269 -7.27,12.269 h -5.967 v 8.395"
         style="fill:#ed1639;fill-opacity:1;fill-rule:nonzero;stroke:none"
         id="path16" />
      <path
         d="m 1097.21,352.727 h 34.22 v -7.911 h -2.1 c -3.39,0 -4.84,-1.289 -6.45,-5.488 l -25.03,-65.703 h -19.04 l -25.03,64.895 c -2.1,5.328 -3.07,6.296 -6.62,6.296 h -1.93 v 7.911 h 40.35 v -7.911 h -5.32 c -4.85,0 -6.46,-1.128 -6.46,-2.906 0,-2.101 0.97,-4.039 1.45,-5.648 l 15.5,-45.528 h 0.32 l 16.79,47.95 c 0.49,1.125 0.81,2.742 0.81,4.031 0,1.133 -0.97,2.101 -4.68,2.101 h -6.78 v 7.911"
         style="fill:#ed1639;fill-opacity:1;fill-rule:nonzero;stroke:none"
         id="path18" />
      <path
         d="m 1192.16,321.73 c 0,13.235 -3.38,24.7 -17.27,24.7 -13.88,0 -17.92,-11.137 -17.92,-24.7 z m -35.19,-9.363 c 0,-10.98 0.16,-30.996 20.02,-30.996 11.79,0 16.63,6.297 16.79,18.406 h 16.47 c -0.17,-13.886 -8.24,-27.769 -35.2,-27.769 -27.12,0 -38.74,17.758 -38.74,41.648 0,23.895 11.62,41.653 38.74,41.653 25.99,0 36.81,-12.106 36.81,-39.231 v -3.711 h -54.89"
         style="fill:#ed1639;fill-opacity:1;fill-rule:nonzero;stroke:none"
         id="path20" />
      <path
         d="m 1223.76,352.727 c 9.21,0 23.57,0.968 31.48,1.937 v -17.922 h 0.32 c 5.5,13.078 14.7,18.567 27.77,18.567 4.68,0 9.21,-0.645 12.92,-1.938 v -23.242 h -15.5 c -0.16,8.07 -1.94,12.586 -8.23,12.586 -7.43,0 -14.86,-10.008 -14.86,-23.57 v -26.473 c 0,-7.426 0.81,-10.172 9.05,-10.172 h 8.55 v -7.91 h -51.5 v 7.91 h 5.17 c 8.23,0 9.04,2.746 9.04,10.172 v 39.391 c 0,10.812 -0.81,12.269 -7.27,12.269 h -6.94 v 8.395"
         style="fill:#ed1639;fill-opacity:1;fill-rule:nonzero;stroke:none"
         id="path22" />
      <path
         d="m 1307.52,299.777 h 13.56 c 0,-11.464 3.07,-18.894 14.21,-18.894 10.33,0 17.11,4.363 17.11,11.789 0,5.973 -2.26,9.527 -17.11,14.043 -18.73,5.652 -27.77,12.43 -27.77,25.023 0,14.692 13.24,23.571 32.29,23.571 12.27,0 23.09,-2.262 27.76,-4.356 v -22.117 h -13.55 c 0,12.43 -3.07,17.594 -14.7,17.594 -7.42,0 -12.1,-3.067 -12.1,-9.524 0,-6.133 4.19,-10.496 11.62,-12.918 l 13.24,-4.359 c 13.88,-4.516 20.02,-9.199 20.02,-21.469 0,-18.887 -17.92,-26.152 -34.87,-26.152 -13.24,0 -25.03,3.226 -29.71,5.164 v 22.605"
         style="fill:#ed1639;fill-opacity:1;fill-rule:nonzero;stroke:none"
         id="path24" />
      <path
         d="m 1407.64,392.441 c 7.59,0 11.79,-5.164 11.79,-12.109 0,-6.941 -4.2,-12.109 -11.79,-12.109 -7.58,0 -11.78,5.168 -11.78,12.109 0,6.945 4.2,12.109 11.78,12.109 z m -22.76,-39.714 c 8.24,0 22.6,0.968 32.93,1.937 v -61.992 c 0,-7.426 0.81,-10.172 9.05,-10.172 h 4.19 v -7.91 h -47.14 v 7.91 h 5.17 c 8.23,0 9.04,2.746 9.04,10.172 v 39.391 c 0,10.812 -0.81,12.269 -7.26,12.269 h -5.98 v 8.395"
         style="fill:#ed1639;fill-opacity:1;fill-rule:nonzero;stroke:none"
         id="path26" />
      <path
         d="m 1438.66,352.727 c 15.01,1.777 18.56,6.457 19.86,22.761 h 14.04 v -22.761 h 25.83 v -9.364 h -25.83 v -51.336 c 0,-6.941 2.58,-10.011 8.39,-10.011 5.82,0 8.4,3.07 8.4,10.011 v 8.231 h 13.56 v -3.547 c 0,-17.277 -9.04,-25.027 -24.7,-25.027 -16.3,0 -25.34,5.328 -25.34,25.347 v 46.332 h -14.21 v 9.364"
         style="fill:#ed1639;fill-opacity:1;fill-rule:nonzero;stroke:none"
         id="path28" />
      <path
         d="m 1522.64,334.645 c -3.23,7.75 -5.17,10.171 -9.04,10.171 h -2.43 v 7.911 h 40.04 v -7.911 h -5.97 c -2.75,0 -4.36,-0.644 -4.36,-2.906 0,-2.422 1.13,-4.683 2.1,-7.265 l 13.24,-35.84 14.68,37.617 c 0.98,2.262 1.78,4.199 1.78,5.648 0,2.262 -1.13,2.746 -3.87,2.746 h -6.78 v 7.911 h 34.22 v -7.911 h -3.55 c -3.39,0 -4.84,-2.586 -7.1,-7.91 l -31.64,-75.715 c -0.97,-2.261 -2.59,-5.976 -2.59,-8.554 0,-3.395 1.78,-4.844 8.08,-4.844 h 5.32 v -7.91 h -43.26 v 7.91 h 7.26 c 6.13,0 8.23,3.391 10.33,9.039 l 7.75,19.695 -24.21,58.118"
         style="fill:#ed1639;fill-opacity:1;fill-rule:nonzero;stroke:none"
         id="path30" />
      <path
         d="m 1664.8,281.371 c 13.23,0 18.08,10.332 18.08,32.285 0,21.961 -4.85,32.293 -18.08,32.293 -13.24,0 -18.08,-10.332 -18.08,-32.293 0,-21.953 4.84,-32.285 18.08,-32.285 z m 0,73.938 c 27.12,0 38.74,-17.758 38.74,-41.653 0,-23.89 -11.62,-41.648 -38.74,-41.648 -27.12,0 -38.75,17.758 -38.75,41.648 0,23.895 11.63,41.653 38.75,41.653"
         style="fill:#ed1639;fill-opacity:1;fill-rule:nonzero;stroke:none"
         id="path32" />
      <path
         d="m 1713.42,352.727 h 14.21 c 0,21.957 0.97,39.714 30.35,39.714 7.91,0 15.01,-0.972 21.47,-2.261 v -21.313 h -13.56 c 0,10.66 -2.09,14.211 -8.07,14.211 -6.62,0 -10.49,-4.683 -10.49,-14.371 v -15.98 h 21.14 v -9.364 h -21.14 v -50.691 c 0,-7.426 0.81,-10.172 9.04,-10.172 h 8.55 v -7.91 h -51.5 v 7.91 h 5.17 c 8.23,0 9.04,2.746 9.04,10.172 v 50.691 h -14.21 v 9.364"
         style="fill:#ed1639;fill-opacity:1;fill-rule:nonzero;stroke:none"
         id="path34" />
      <path
         d="m 818.566,185.02 c -9.043,0 -13.886,-5.321 -13.886,-19.364 0,-14.531 5.488,-20.664 14.047,-20.664 8.714,0 12.753,6.778 12.753,20.821 0,14.695 -5.164,19.207 -12.914,19.207 z m -0.16,-70.547 c -14.531,0 -19.375,-7.098 -19.375,-15.6527 0,-7.9101 5.324,-14.375 18.887,-14.375 15.336,0 20.34,7.7539 20.34,15.1758 0,8.2309 -5.809,14.8519 -19.852,14.8519 z m 43.262,67.804 h -15.66 v -0.324 c 4.039,-3.066 7.105,-9.355 7.105,-16.297 0,-12.922 -7.105,-25.031 -29.707,-28.742 l -3.875,-0.644 c -5.324,-0.809 -12.59,-1.61 -12.59,-6.942 0,-4.523 2.907,-6.133 20.664,-7.422 15.176,-1.133 30.352,-3.39 30.352,-22.4412 0,-15.0195 -14.855,-23.8984 -41.973,-23.8984 -25.507,0 -36.652,10.332 -36.652,23.4102 0,13.0744 13.402,19.0504 24.703,20.1834 v 0.324 c -10.816,2.098 -14.531,4.844 -14.531,10.332 0,5.164 4.684,9.2 15.824,10.164 v 0.325 c -12.109,3.875 -21.312,11.14 -21.312,25.828 0,15.664 13.886,27.773 35.035,27.773 6.777,0 14.203,-2.097 18.722,-3.398 l 23.895,2.101 v -10.332"
         style="fill:#ed1639;fill-opacity:1;fill-rule:nonzero;stroke:none"
         id="path36" />
      <path
         d="m 869.129,191.32 c 9.203,0 23.566,0.965 31.476,1.942 v -17.918 h 0.325 c 5.492,13.074 14.691,18.562 27.769,18.562 4.684,0 9.203,-0.644 12.914,-1.941 v -23.242 h -15.5 c -0.16,8.066 -1.937,12.586 -8.23,12.586 -7.426,0 -14.856,-10.008 -14.856,-23.563 V 131.27 c 0,-7.43 0.813,-10.176 9.043,-10.176 h 8.559 v -7.91 h -51.5 v 7.91 h 5.164 c 8.234,0 9.043,2.746 9.043,10.176 v 39.386 c 0,10.821 -0.809,12.274 -7.266,12.274 h -6.941 v 8.39"
         style="fill:#ed1639;fill-opacity:1;fill-rule:nonzero;stroke:none"
         id="path38" />
      <path
         d="m 987.766,119.961 c 13.234,0 18.084,10.332 18.084,32.297 0,21.953 -4.85,32.285 -18.084,32.285 -13.239,0 -18.082,-10.332 -18.082,-32.285 0,-21.965 4.843,-32.297 18.082,-32.297 z m 0,73.945 c 27.124,0 38.744,-17.761 38.744,-41.648 0,-23.899 -11.62,-41.653 -38.744,-41.653 -27.121,0 -38.746,17.754 -38.746,41.653 0,23.887 11.625,41.648 38.746,41.648"
         style="fill:#ed1639;fill-opacity:1;fill-rule:nonzero;stroke:none"
         id="path40" />
      <path
         d="m 1037.36,191.32 c 8.24,0 22.6,0.965 30.51,1.942 v -17.918 h 0.33 c 5.49,13.074 14.69,18.562 27.76,18.562 15.82,0 28.09,-7.109 28.09,-24.539 V 131.27 c 0,-7.43 0.81,-10.176 9.05,-10.176 h 4.19 v -7.91 h -44.23 v 7.91 h 2.26 c 8.23,0 9.04,2.746 9.04,10.176 v 33.41 c 0,11.465 -5.49,16.629 -14.21,16.629 -11.78,0 -19.86,-8.387 -19.86,-23.563 V 131.27 c 0,-7.43 0.82,-10.176 9.05,-10.176 h 2.26 v -7.91 h -45.21 v 7.91 h 5.17 c 8.23,0 9.04,2.746 9.04,10.176 v 39.386 c 0,10.821 -0.81,12.274 -7.26,12.274 h -5.98 v 8.39"
         style="fill:#ed1639;fill-opacity:1;fill-rule:nonzero;stroke:none"
         id="path42" />
      <path
         d="m 1168.65,231.035 c 7.59,0 11.79,-5.164 11.79,-12.109 0,-6.942 -4.2,-12.11 -11.79,-12.11 -7.59,0 -11.78,5.168 -11.78,12.11 0,6.945 4.19,12.109 11.78,12.109 z m -22.76,-39.715 c 8.23,0 22.6,0.965 32.93,1.942 V 131.27 c 0,-7.43 0.81,-10.176 9.04,-10.176 h 4.2 v -7.91 h -47.14 v 7.91 h 5.16 c 8.24,0 9.05,2.746 9.05,10.176 v 39.386 c 0,10.821 -0.81,12.274 -7.27,12.274 h -5.97 v 8.39"
         style="fill:#ed1639;fill-opacity:1;fill-rule:nonzero;stroke:none"
         id="path44" />
      <path
         d="m 1200.64,191.32 c 8.23,0 22.6,0.965 30.51,1.942 v -17.918 h 0.32 c 5.49,13.074 14.69,18.562 27.77,18.562 15.82,0 28.09,-7.109 28.09,-24.539 V 131.27 c 0,-7.43 0.81,-10.176 9.04,-10.176 h 4.2 v -7.91 h -44.24 v 7.91 h 2.27 c 8.23,0 9.03,2.746 9.03,10.176 v 33.41 c 0,11.465 -5.48,16.629 -14.2,16.629 -11.79,0 -19.86,-8.387 -19.86,-23.563 V 131.27 c 0,-7.43 0.81,-10.176 9.04,-10.176 h 2.26 v -7.91 h -45.2 v 7.91 h 5.17 c 8.23,0 9.04,2.746 9.04,10.176 v 39.386 c 0,10.821 -0.81,12.274 -7.27,12.274 h -5.97 v 8.39"
         style="fill:#ed1639;fill-opacity:1;fill-rule:nonzero;stroke:none"
         id="path46" />
      <path
         d="m 1348.23,185.02 c -9.04,0 -13.88,-5.321 -13.88,-19.364 0,-14.531 5.49,-20.664 14.05,-20.664 8.71,0 12.75,6.778 12.75,20.821 0,14.695 -5.17,19.207 -12.92,19.207 z m -0.16,-70.547 c -14.53,0 -19.37,-7.098 -19.37,-15.6527 0,-7.9101 5.33,-14.375 18.88,-14.375 15.34,0 20.35,7.7539 20.35,15.1758 0,8.2309 -5.81,14.8519 -19.86,14.8519 z m 43.26,67.804 h -15.65 v -0.324 c 4.03,-3.066 7.1,-9.355 7.1,-16.297 0,-12.922 -7.1,-25.031 -29.71,-28.742 l -3.87,-0.644 c -5.33,-0.809 -12.59,-1.61 -12.59,-6.942 0,-4.523 2.9,-6.133 20.66,-7.422 15.18,-1.133 30.35,-3.39 30.35,-22.4412 0,-15.0195 -14.85,-23.8984 -41.97,-23.8984 -25.51,0 -36.65,10.332 -36.65,23.4102 0,13.0744 13.4,19.0504 24.7,20.1834 v 0.324 c -10.81,2.098 -14.53,4.844 -14.53,10.332 0,5.164 4.68,9.2 15.83,10.164 v 0.325 c -12.11,3.875 -21.32,11.14 -21.32,25.828 0,15.664 13.89,27.773 35.04,27.773 6.77,0 14.2,-2.097 18.72,-3.398 l 23.89,2.101 v -10.332"
         style="fill:#ed1639;fill-opacity:1;fill-rule:nonzero;stroke:none"
         id="path48" />
      <path
         d="m 1457.88,160.324 c 0,13.242 -3.39,24.696 -17.27,24.696 -13.88,0 -17.92,-11.133 -17.92,-24.696 z m -35.19,-9.367 c 0,-10.977 0.16,-30.996 20.02,-30.996 11.78,0 16.63,6.301 16.79,18.41 h 16.46 c -0.16,-13.887 -8.23,-27.766 -35.19,-27.766 -27.12,0 -38.75,17.754 -38.75,41.653 0,23.887 11.63,41.648 38.75,41.648 25.99,0 36.81,-12.109 36.81,-39.226 v -3.723 h -54.89"
         style="fill:#ed1639;fill-opacity:1;fill-rule:nonzero;stroke:none"
         id="path50" />
      <path
         d="m 1490.37,191.32 c 8.23,0 22.6,0.965 30.51,1.942 v -17.918 h 0.32 c 5.49,13.074 14.69,18.562 27.77,18.562 15.82,0 28.09,-7.109 28.09,-24.539 V 131.27 c 0,-7.43 0.8,-10.176 9.04,-10.176 h 4.19 v -7.91 h -44.23 v 7.91 h 2.26 c 8.23,0 9.04,2.746 9.04,10.176 v 33.41 c 0,11.465 -5.49,16.629 -14.2,16.629 -11.79,0 -19.86,-8.387 -19.86,-23.563 V 131.27 c 0,-7.43 0.81,-10.176 9.04,-10.176 h 2.26 v -7.91 h -45.2 v 7.91 h 5.16 c 8.23,0 9.05,2.746 9.05,10.176 v 39.386 c 0,10.821 -0.82,12.274 -7.27,12.274 h -5.97 v 8.39"
         style="fill:#ed1639;fill-opacity:1;fill-rule:nonzero;stroke:none"
         id="path52" />
      <path
         d="M 2365.24,353.969 2078.45,0 2055.66,0.0195313 2342.41,353.949 l 22.83,0.02 v 0"
         style="fill:#ed1639;fill-opacity:1;fill-rule:nonzero;stroke:none"
         id="path54" />
      <path
         d="M 691.973,353.969 405.184,0 382.387,0.0195313 669.152,353.949 l 22.821,0.02 v 0"
         style="fill:#ed1639;fill-opacity:1;fill-rule:nonzero;stroke:none"
         id="path56" />
      <path
         d="m 138.543,422.902 c -2.09,-0.328 -5.031,-1.16 -6.75,2.567 -1.551,3.371 4.277,8.828 6.211,10.59 2.512,2.285 -0.75,4.738 -2.66,2.078 -0.531,-0.754 -5.102,-7.215 -8.684,-7.215 -5.57,0 -5.246,6.531 -5.246,6.531 0,0 -6.203,3.957 -6.203,16.531 0,11.184 7.383,16.536 7.383,16.536 0,0 0.051,6.367 5.031,6.203 4.98,-0.16 8.188,-7.004 8.512,-7.481 2.515,-3.773 5.668,-0.551 3.465,2.137 -5.211,6.348 -6.309,11.355 -0.61,14.043 2.071,4.719 8.321,8.031 15.141,8.562 l 0.23,0.016 0.219,0.016 c 6.832,-0.563 13.07,-3.875 15.152,-8.594 5.688,-2.688 4.59,-7.695 -0.613,-14.043 -2.211,-2.688 0.953,-5.91 3.473,-2.137 0.308,0.477 3.531,7.321 8.508,7.481 4.968,0.164 5.035,-6.203 5.035,-6.203 0,0 7.375,-5.352 7.375,-16.536 0,-12.574 -6.211,-16.531 -6.211,-16.531 0,0 0.324,-6.531 -5.238,-6.531 -3.579,0 -8.149,6.461 -8.692,7.215 -1.898,2.66 -5.156,0.207 -2.648,-2.078 1.922,-1.762 7.761,-7.219 6.199,-10.59 -1.711,-3.727 -4.649,-2.895 -6.738,-2.567 0,0 -1.911,-3.328 -4.801,-3.332 14.437,-10.789 37.121,-4.687 40.152,3.219 0,0 -3.844,-0.758 -3.801,3.262 0.032,2.437 2.512,3.765 5.86,4.242 -0.703,1.543 -1.047,3.398 -0.934,5.402 0.332,5.657 4.235,10.41 8.731,10.61 4.496,0.195 7.863,-4.231 7.531,-9.887 -0.16,-2.852 -1.242,-5.469 -2.836,-7.395 3.285,-1.128 5.605,-2.812 5.297,-4.789 -0.801,-5.191 -5.61,-3.906 -5.61,-3.906 -0.582,-11.871 17.52,-14.14 22.149,-11.078 -1.817,6.848 0.914,8.91 2.992,10.754 1.488,1.316 5.918,4.043 6.527,4.441 1.395,0.907 2.102,2.821 1.231,3.535 -0.809,0.672 -2.617,-0.484 -3.473,-1.445 -1.222,-1.379 -3.379,-4.637 -6.746,-3.746 -4.058,1.07 -2.308,5.727 -2.988,8.242 -4.352,15.824 -0.641,26.871 15.191,33.496 0,0 6.024,6.344 11.414,3.481 5.172,-2.735 1.965,-11.192 1.965,-11.192 l 1.598,-0.746 c 5.777,10.485 14.137,18.102 26.129,18.399 8.511,0.215 12.597,-4.801 12.929,-11.66 0.739,-15.286 -14.875,-9.59 -13.66,-3.883 0,0 -3.777,-0.391 -5.859,-3.711 0,0.957 0.121,10.035 -7.981,5.246 -2.296,-1.375 -6.39,-8.231 -6.687,-9.102 -1.012,-3.004 0.449,-3.488 -1.121,-6.418 -1.227,-2.304 -2.942,-2.836 -3.688,-4.441 -0.754,-1.609 0.317,-4.762 -0.703,-6.797 -1.242,-2.48 -2.941,-2.672 -4.058,-4.922 -0.903,-1.777 -12.211,-30.605 -12.211,-30.605 0,0 4.5,-2.891 3.652,-7.168 -1.152,-5.735 -4.801,-4.5 -6.742,-8.262 -61.418,15.789 -124.988,15.879 -190.6916,0.262 -1.9687,3.441 -5.4687,2.402 -6.5898,8 -0.8516,4.277 3.6406,7.168 3.6406,7.168 0,0 -11.3086,28.828 -12.2031,30.605 -1.1172,2.25 -2.8243,2.442 -4.0664,4.922 -1.0196,2.035 0.0507,5.188 -0.6914,6.797 -0.75,1.605 -2.4688,2.137 -3.6875,4.441 -1.5743,2.93 -0.1211,3.414 -1.1329,6.418 -0.289,0.871 -4.3789,7.727 -6.6914,9.102 -8.0898,4.789 -7.9687,-4.289 -7.9687,-5.246 -2.0781,3.32 -5.8672,3.711 -5.8672,3.711 1.2187,-5.707 -14.398444,-11.403 -13.6562562,3.883 0.3320312,6.859 4.4257862,11.875 12.9218562,11.66 12.0039,-0.297 20.3516,-7.914 26.1328,-18.399 l 1.6094,0.746 c 0,0 -3.2109,8.457 1.9609,11.192 5.3907,2.863 11.4102,-3.481 11.4102,-3.481 15.8398,-6.625 19.5391,-17.672 15.2031,-33.496 -0.6953,-2.515 1.0664,-7.172 -3.0039,-8.242 -3.3711,-0.891 -5.5078,2.367 -6.7383,3.746 -0.8515,0.961 -2.6601,2.117 -3.4804,1.445 -0.8594,-0.714 -0.1485,-2.628 1.2304,-3.535 0.6172,-0.398 5.0391,-3.125 6.5274,-4.441 2.0937,-1.844 4.8242,-3.906 3.0039,-10.754 4.6289,-3.062 22.7187,-0.793 22.1484,11.078 0,0 -4.8203,-1.285 -5.6133,3.906 -0.3046,1.977 2.004,3.661 5.293,4.789 -1.6015,1.926 -2.668,4.543 -2.8398,7.395 -0.3321,5.656 3.0508,10.082 7.539,9.887 4.4922,-0.2 8.402,-4.953 8.731,-10.61 0.113,-2.004 -0.239,-3.859 -0.926,-5.402 3.336,-0.477 5.828,-1.805 5.847,-4.242 0.047,-4.02 -3.804,-3.262 -3.804,-3.262 3.043,-7.906 25.722,-14.008 40.164,-3.219 -2.903,0.012 -4.801,3.332 -4.801,3.332 z m 5.199,29.555 c 0,-5.863 4.75,-10.617 10.621,-10.617 5.86,0 10.61,4.754 10.61,10.617 0,5.859 -4.75,10.613 -10.61,10.613 -5.871,0 -10.621,-4.754 -10.621,-10.613 z M 202.32,406.41 c 4.582,0.137 13.512,-1.73 13.512,-1.73 0,0 -3.801,4.246 -5.535,7.136 0,0 -2.035,-1.894 -3.254,-2.789 -0.973,-0.695 -4.723,-2.617 -4.723,-2.617 z m -47.957,9.313 c -1.789,-1.989 -5.25,-5.395 -9.011,-6.684 0,0 6.195,0.156 8.875,0.203 h 0.265 c 2.692,-0.047 8.879,-0.203 8.879,-0.203 -3.769,1.289 -7.226,4.695 -9.008,6.684 z m -47.968,-9.313 c 0,0 -3.75,1.922 -4.715,2.617 -1.231,0.895 -3.2542,2.789 -3.2542,2.789 -1.7461,-2.89 -5.543,-7.136 -5.543,-7.136 0,0 8.9412,1.867 13.5122,1.73 z m 140.527,-28.676 c 2.953,-0.789 7.078,-3.679 5.941,-7.937 -1.136,-4.258 -6.172,-4.699 -9.121,-3.906 -2.949,0.789 -7.082,3.683 -5.937,7.937 1.136,4.258 6.168,4.699 9.117,3.906 z m -38.59,1.153 -8.949,-7.516 -7.512,8.957 8.949,7.508 7.512,-8.949 z M 66.0039,365.891 c -2.9492,-0.793 -7.9805,-0.352 -9.1211,3.906 -1.1406,4.258 3,7.148 5.9492,7.937 2.9414,0.793 7.9688,0.352 9.1211,-3.906 1.1407,-4.254 -3,-7.148 -5.9492,-7.937 z m 79.5391,15.824 c 0,3.379 4.18,6.113 9.332,6.113 5.156,0 9.324,-2.734 9.324,-6.113 0,-3.379 -4.168,-6.117 -9.324,-6.117 -5.152,0 -9.332,2.738 -9.332,6.117 z m -44.129,-2.828 7.508,8.949 8.949,-7.508 -7.508,-8.957 -8.949,7.516 z M 24.8398,108.664 c 1.0196,4.063 5.3516,3.152 5.3516,3.152 0,0 -1.0312,3.75 2.8047,5.469 4.2266,1.906 6.3359,-2.773 6.3359,-2.773 l 1.7774,-12.059 -12.8477,0.43 c 0,0 -4.5508,1.269 -3.4219,5.781 z m 18.2032,19.941 c 1.0195,4.071 5.3515,3.153 5.3515,3.153 0,0 -1.0351,3.75 2.7891,5.469 4.2383,1.914 6.3359,-2.774 6.3359,-2.774 l 1.793,-12.051 -12.8516,0.43 c 0,0 -4.5507,1.27 -3.4179,5.773 z m 18.1875,19.95 c 1.0234,4.062 5.3515,3.156 5.3515,3.156 0,0 -1.0273,3.75 2.7891,5.469 4.2383,1.902 6.3516,-2.785 6.3516,-2.785 L 77.5,142.344 64.6563,142.773 c 0,0 -4.5508,1.27 -3.4258,5.782 z m 93.2425,184.726 c 1.023,4.067 5.347,3.157 5.347,3.157 0,0 -1.031,3.75 2.793,5.468 4.239,1.907 6.348,-2.781 6.348,-2.781 l 1.781,-12.051 -12.851,0.43 c 0,0 -4.547,1.269 -3.418,5.777 z m 17.781,-68.031 c 1.019,4.066 5.351,3.152 5.351,3.152 0,0 -1.031,3.75 2.786,5.469 4.242,1.91 6.343,-2.777 6.343,-2.777 l 1.789,-12.051 -12.851,0.43 c 0,0 -4.547,1.269 -3.418,5.777 z m 21.355,22.605 c 1.012,4.071 5.352,3.157 5.352,3.157 0,0 -1.031,3.754 2.793,5.468 4.238,1.911 6.34,-2.773 6.34,-2.773 l 1.793,-12.055 -12.856,0.43 c 0,0 -4.551,1.27 -3.422,5.773 z m 21.356,22.61 c 1.019,4.066 5.348,3.16 5.348,3.16 0,0 -1.02,3.75 2.8,5.469 4.227,1.902 6.34,-2.781 6.34,-2.781 l 1.777,-12.055 -12.835,0.43 c 0,0 -4.559,1.269 -3.43,5.777 z m 21.359,22.613 c 1.016,4.063 5.348,3.152 5.348,3.152 0,0 -1.031,3.75 2.801,5.469 4.23,1.906 6.34,-2.777 6.34,-2.777 l 1.781,-12.051 -12.852,0.426 c 0,0 -4.551,1.269 -3.418,5.781 z M 12.75,180.879 c 1.0195,4.062 5.3516,3.156 5.3516,3.156 0,0 -1.0313,3.75 2.8047,5.469 4.2265,1.902 6.3359,-2.785 6.3359,-2.785 l 1.7773,-12.051 -12.8476,0.43 c 0,0 -4.5508,1.269 -3.4219,5.781 z M 62.3398,59.8555 c 1.0196,4.0625 5.3516,3.1523 5.3516,3.1523 0,0 -1.0312,3.75 2.8047,5.4688 4.2266,1.9062 6.3359,-2.7735 6.3359,-2.7735 L 78.6094,53.6523 65.7617,54.082 c 0,0 -4.5508,1.2696 -3.4219,5.7735 z m 21.125,22.9687 c 1.0079,4.0508 5.3516,3.1446 5.3516,3.1446 0,0 -1.0351,3.75 2.7852,5.4687 4.2382,1.9141 6.3398,-2.7734 6.3398,-2.7734 l 1.793,-12.0508 -12.8516,0.4297 c 0,0 -4.5508,1.2695 -3.418,5.7812 z M 104.57,105.773 c 1.024,4.071 5.356,3.165 5.356,3.165 0,0 -1.031,3.75 2.785,5.457 4.242,1.914 6.352,-2.774 6.352,-2.774 L 120.844,99.5703 107.996,100 c 0,0 -4.551,1.27 -3.426,5.773 z m 21.11,22.969 c 1.019,4.063 5.351,3.153 5.351,3.153 0,0 -1.027,3.75 2.805,5.468 4.227,1.907 6.336,-2.781 6.336,-2.781 l 1.781,-12.051 -12.851,0.43 c 0,0 -4.547,1.269 -3.422,5.781 z m 92.996,97.617 c 1.019,4.071 5.344,3.153 5.344,3.153 0,0 -1.016,3.75 2.804,5.468 4.227,1.907 6.336,-2.773 6.336,-2.773 l 1.781,-12.059 -12.839,0.43 c 0,0 -4.559,1.27 -3.426,5.781 z m 19.035,20.766 c 1.019,4.066 5.352,3.16 5.352,3.16 0,0 -1.02,3.75 2.796,5.469 4.235,1.902 6.344,-2.781 6.344,-2.781 l 1.777,-12.055 -12.835,0.43 c 0,0 -4.559,1.269 -3.434,5.777 z m 19.043,20.77 c 1.016,4.07 5.348,3.156 5.348,3.156 0,0 -1.032,3.75 2.8,5.469 4.231,1.91 6.34,-2.778 6.34,-2.778 l 1.781,-12.051 -12.851,0.43 c 0,0 -4.551,1.27 -3.418,5.774 z m 19.039,20.769 c 1.02,4.066 5.352,3.156 5.352,3.156 0,0 -1.032,3.75 2.789,5.465 4.238,1.91 6.347,-2.773 6.347,-2.773 l 1.782,-12.055 -12.852,0.43 c 0,0 -4.547,1.269 -3.418,5.777 z M 128.016,39.4844 c 1.015,4.0508 5.343,3.1445 5.343,3.1445 0,0 -1.027,3.75 2.793,5.4688 4.239,1.9023 6.352,-2.7735 6.352,-2.7735 l 1.781,-12.0508 -12.851,0.4297 c 0,0 -4.551,1.2696 -3.418,5.7813 z m 147.89,163.6716 c 1.016,4.063 5.348,3.153 5.348,3.153 0,0 -1.031,3.75 2.793,5.468 4.234,1.907 6.344,-2.781 6.344,-2.781 l 1.785,-12.051 -12.852,0.43 c 0,0 -4.551,1.27 -3.418,5.781 z M 132.852,186.711 c 0,0.644 1.011,0.535 2.929,0.859 1.93,0.313 3.629,0.957 3.629,0.313 0,-0.957 -1.328,-0.207 -1.328,-1.758 v -15 c 0,-0.742 1.012,-0.207 1.012,-0.793 0,-0.75 -1.813,-0.43 -3.149,-0.43 -1.382,0 -3.148,-0.32 -3.148,0.266 0,1.016 1.223,0 1.223,0.957 v 14.258 c 0,1.492 -1.168,0.105 -1.168,1.328 z m -16.289,-6.484 c 0,0.429 0.531,0.476 1.492,0.957 0.965,0.476 1.547,1.015 2.406,0.273 0.855,-0.754 5.492,-6.094 5.492,-6.094 v 7.578 c 0,0.86 -1.488,-0.265 -1.488,0.594 0,0.637 0.64,0.637 1.711,1.067 1.058,0.429 2.605,1.601 2.605,0.847 0,-0.898 -1.117,-0.633 -1.117,-1.804 v -14.629 c 0,-1.231 -0.113,-1.231 -0.641,-1.231 -0.324,0 -7.71,9.317 -7.71,9.317 v -9.934 c 0,-0.906 1.789,0.352 1.789,-0.496 0,-0.488 -1.071,-0.754 -2.141,-1.184 -1.07,-0.418 -2.559,-1.113 -2.559,-0.586 0,0.911 1.328,0.586 1.328,1.496 v 12.86 c 0,0.969 -1.167,0.215 -1.167,0.969 z m -5.782,-9.153 c 0,6.192 -3.949,3.899 -3.949,3.899 v -12.735 c 0,0 3.949,0.078 3.949,8.836 z m -9.226,2.559 c 0,0.461 1.929,1.172 3.199,1.769 2.301,1.063 9.719,4.852 9.719,-4.269 0,-8.387 -5.871,-9.774 -7.739,-10.625 -1.875,-0.86 -4.402,-2.09 -4.589,-1.68 -0.321,0.664 1.007,0.774 1.007,2.266 v 10.41 c 0,2.609 -1.597,1.25 -1.597,2.129 z m 25.847,37.824 c -0.043,0.391 1.512,0.652 2.301,0.867 1.34,0.364 2.188,0.617 2.75,0.059 0.563,-0.555 3.301,-4.988 3.301,-4.988 0,0 3.531,4.988 3.809,5.332 0.277,0.332 0.402,0.8 1.8,0.839 1.621,0.028 2.352,0.196 2.352,-0.148 0,-0.613 -1.012,-0.301 -1.063,-1.59 -0.047,-1.015 0,-12.949 0,-13.625 0,-1.512 1.032,-1.004 1.032,-1.512 0,-0.5 -0.668,-0.304 -3.051,-0.285 -1.957,0.032 -3.281,-0.242 -3.281,0.117 0,0.676 1.043,0.118 1.043,1.485 v 9.101 c 0,0 -3.422,-4.98 -3.594,-4.98 -0.199,0 -4.371,6.359 -4.371,6.359 V 197.59 c 0,-1.738 1.734,-0.723 1.734,-1.399 0,-0.339 -1.32,-0.488 -2.289,-0.73 -1.121,-0.285 -2.105,-0.703 -2.211,-0.391 -0.25,0.684 1.199,0.301 1.199,2.266 0,1.738 0.02,11.738 0,12.469 -0.058,1.933 -1.398,1.093 -1.461,1.652 z m -4.929,-1.894 c 0.582,0.261 2.109,1.101 2.3,0.847 0.258,-0.371 -0.621,-0.457 -1.23,-3.094 -0.23,-0.957 -3.102,-16.066 -4.172,-16.601 -0.34,-0.176 -5.211,11.902 -5.656,12.859 -0.793,1.711 -1.652,0.567 -1.813,1.184 -0.097,0.379 1.239,0.879 2.344,1.387 0.586,0.261 2.738,1.562 2.969,1.308 0.449,-0.508 -1.184,-0.539 -0.402,-2.383 0.519,-1.242 3.253,-7.257 3.253,-7.257 0,0 1.606,6.777 2.09,9.074 0.477,2.293 -1.285,1.152 -1.343,1.66 -0.032,0.281 0.859,0.664 1.601,0.984 l 0.059,0.032 z m -18.692,-15.872 v -8.3 c 0,0 4.274,0.898 4.274,6.074 0,4.426 -4.274,2.226 -4.274,2.226 z m -0.058,7.286 v -5.497 c 0,0 3.109,1.153 3.109,3.829 0,3.203 -3.109,1.668 -3.109,1.668 z m 0.332,1.425 c 1.804,0.696 6.566,1.661 6.566,-2.449 0,-2.941 -1.93,-3.633 -1.93,-3.633 0,0 3.485,-0.644 3.485,-3.527 0,-3.309 -1.613,-5.605 -3.422,-6.563 -0.93,-0.488 -6.621,-3.25 -7.16,-3.574 -0.531,-0.32 -1.801,-1.015 -1.9377,-0.691 -0.3243,0.711 0.9257,0.586 0.9257,2.723 V 198 c 0,2.832 -1.3281,1.57 -1.3281,2.324 0,0.457 2.9491,1.375 4.8011,2.078 z m 29.621,37.481 v -6.727 c 0,0 3.156,0.215 3.156,3.836 0,4.328 -3.156,2.891 -3.156,2.891 z m 8.355,-15.008 c 0.953,-0.117 1.383,0.273 1.383,0.273 0,0 -0.32,-2.414 -2.82,-2.414 -3.418,0 -3.371,5.879 -4.324,7.579 -0.965,1.71 -2.579,0.8 -2.579,0.8 v -5.976 c 0,-1.914 1.204,-1.094 1.204,-1.785 0,-0.293 -0.934,-0.45 -0.934,-0.45 0,0 -2.606,-0.754 -3.559,-0.968 -0.972,-0.204 -1.39,-0.418 -1.39,0 0,0.761 0.953,0.273 0.953,2.375 v 12.363 c 0,2.402 -1.383,1.601 -1.414,2.273 -0.02,0.391 0.972,0.578 1.926,0.821 1.605,0.402 2.214,0.91 4.503,1.445 2.215,0.508 6.09,-0.535 6.09,-3.633 0,-3.418 -1.918,-4.109 -2.988,-4.91 3.949,-1.926 2.18,-7.578 3.949,-7.793 z m -25.941,8.777 c 1.601,0.539 4.433,1.739 7.473,3.45 0.417,0.222 1.648,1.003 2.25,-0.11 0.609,-1.152 1.058,-2.676 0.687,-2.832 -0.547,-0.234 -0.906,0.215 -1.598,0.586 -0.609,0.332 -1.39,0.695 -2.14,0.488 -0.75,-0.214 -1.77,-0.664 -1.77,-0.664 l 0.012,-5.261 c 0,0 1.867,0 2.078,1.004 0.172,0.82 0.508,1.875 1.09,2.031 0.34,0.097 0.25,-0.985 0.281,-2.489 0.02,-0.527 0.051,-0.812 0.059,-1.105 0.043,-1.844 -0.071,-2.461 -0.34,-2.52 -0.496,-0.097 -0.938,1.262 -1.059,1.583 -0.222,0.558 -2.109,0.05 -2.109,-0.274 v -7.547 c 0,0 1.437,0.77 2.078,1.141 0.871,0.508 2.34,2.207 2.91,3.215 0.563,0.984 0.781,1.785 1.309,1.699 0.324,-0.051 -0.379,-3.313 -0.379,-3.313 0,0 -0.051,-1.277 -1.109,-1.804 -1.071,-0.539 -7.043,-3.332 -7.559,-3.575 -1.02,-0.488 -2.25,-1.367 -2.27,-0.89 -0.031,0.754 0.989,0.351 0.989,2.57 l -0.02,12.617 c 0,0 -0.051,1.063 -0.863,1.2 -0.606,0.109 -1.195,0.402 0,0.8 z m -13.957,-5.789 c 0.863,0.293 3.289,1.336 3.422,1.043 0.34,-0.761 -1.262,-0.586 -0.735,-2.109 0.45,-1.277 3.274,-7.957 3.274,-7.957 l 2.449,9.609 c 0.527,2.078 -1.152,1.356 -1.289,1.864 -0.082,0.351 1.23,0.753 1.976,1.074 0.622,0.293 2.594,1.133 2.704,0.879 0.257,-0.664 -0.754,-0.664 -1.282,-2.539 -0.629,-2.215 -4.371,-17.254 -5.418,-17.821 -0.593,-0.324 -5.742,12.645 -6.144,13.66 -0.399,1.016 -1.7853,0.637 -1.9181,1.231 -0.0508,0.234 2.1091,0.773 2.9611,1.066 z m 67.621,-41.652 c -0.02,0.402 0.582,0.234 1.488,-0.039 0.914,-0.274 2,-0.535 2.75,-1.758 0.742,-1.219 6.371,-10.84 6.371,-10.84 l -0.039,8.672 c 0,1.152 -1.011,1.184 -1.011,1.66 0,0.442 0.781,0 1.593,-0.273 0.805,-0.274 1.996,-0.41 1.996,-0.781 0,-0.372 -1.05,0.168 -1.05,-0.848 v -16.359 c 0,0 0,-0.711 -0.477,-0.067 -0.383,0.516 -8.809,14.09 -8.809,14.09 0,0 0.028,-8.504 0,-9.383 -0.035,-1.015 1.086,-0.918 1.086,-1.426 0,-0.507 -1.187,-0.234 -1.925,-0.097 -0.754,0.136 -1.875,0.027 -1.875,0.672 0,0.644 1.019,-0.332 1.019,1.191 v 13.926 c 0,1.047 -1.078,1.113 -1.117,1.66 z m 7.957,25.07 c 0,0.606 2.68,-0.48 4.781,-1.086 2.102,-0.613 6.071,-1.25 6.071,-2.539 0,-1.57 0.398,-3.086 -0.11,-3.086 -0.312,0 -0.949,2.004 -1.59,2.649 -0.98,0.976 -2.98,1.414 -3.519,1.523 -0.539,0.098 -0.414,0.067 -0.414,-0.312 v -5.078 c 0,0 1.363,-0.676 2.101,-0.344 0.75,0.344 0.852,1.523 1.293,1.426 0.442,-0.098 0.27,-1.016 0.196,-2.774 -0.067,-1.765 0.14,-3.359 -0.305,-3.191 -0.434,0.176 -0.473,1.66 -1.383,2.547 -0.918,0.879 -1.93,1.015 -1.93,1.015 v -8.301 c 0,0 1.012,-1.121 3.11,-0.437 2.101,0.672 3.597,2.098 3.929,1.758 0.34,-0.344 0.172,-0.813 -0.839,-2.403 -1.02,-1.593 -1.559,-2.609 -2.582,-2.168 -1.004,0.438 -3.317,1.317 -4.735,1.961 -1.422,0.645 -4.371,1.36 -4.371,1.965 0,0.614 1.461,-0.508 1.461,1.258 v 14.191 c 0,0.711 -1.164,0.946 -1.164,1.426 z m -3.426,2.43 c 0.746,0 0.602,-2.762 0.707,-3.66 0.211,-1.719 0.723,-3.223 0.192,-3.254 -0.821,-0.039 -1.789,2.687 -3.102,4.035 -1.23,1.27 -5.746,3.594 -5.746,-5.977 0,-8.175 3.551,-8 5.488,-7.394 1.899,0.598 2.688,2.09 2.91,1.945 0.231,-0.148 -1.574,-4.035 -5.535,-4.484 -3.949,-0.449 -7.836,3.437 -7.836,9.523 0,6.094 2.989,9.825 6.758,9.825 3.031,0 3.922,-2.09 5.231,-2.09 0.859,0 0.074,1.531 0.933,1.531 z m 10.207,21.691 c 0.153,0.77 1.52,-0.207 3.762,-1.125 2.242,-0.906 3.855,-1.386 3.73,-1.757 -0.14,-0.372 -1.734,0.234 -1.535,-0.809 0.211,-1.047 2.711,-9.289 2.711,-9.289 0,0 2.91,6.906 2.985,7.187 0.21,0.84 -0.774,0.977 -0.684,1.387 0.113,0.43 0.992,-0.137 1.703,-0.547 0.707,-0.398 1.856,-0.769 1.66,-1.25 -0.199,-0.469 -1.054,0.606 -1.39,-0.195 -0.34,-0.82 -6.164,-13.895 -6.164,-13.895 l -5.84,18.797 c -0.325,1.094 -1.039,0.989 -0.938,1.496 z m -13.316,5.047 c 0,0.442 0.816,0.071 0.816,0.071 l 5.184,-1.868 c 0,0 0.906,-0.3 0.879,-0.703 -0.032,-0.41 -1.762,0.508 -1.762,-1.054 v -14.61 c 0,0 0.367,-0.976 2.102,-0.262 1.73,0.711 4.296,2.403 4.296,2.403 0,0 1.223,0.605 0.918,-0.235 -0.304,-0.851 -1.527,-3.566 -1.527,-3.566 0,0 -0.269,-1.043 -1.66,-0.809 -1.391,0.235 -4.809,1.289 -5.758,1.563 -0.941,0.262 -3.594,1.082 -3.594,1.082 0,0 -0.535,0.098 -0.535,0.508 0,0.402 1.66,-0.039 1.66,1.289 v 14.258 c 0,1.289 -1.019,1.328 -1.019,1.933 z m 20.078,-51.59 c 0,1.004 1.391,-0.382 1.391,1.219 v 14.094 c 0,1.758 -0.801,1.707 -0.801,2.402 0,0.692 1.551,-0.324 1.918,-0.48 0.371,-0.164 4.429,-2.246 4.863,-2.449 0.43,-0.215 4.746,-1.985 4.746,-6.731 0,-3.25 -2.719,-2.723 -2.719,-2.723 0,0 2.719,-1.601 2.879,-4.003 0.16,-2.395 0.481,-4.426 0.481,-4.747 0,-0.324 0.48,-1.711 1.972,-0.429 0,0 0.168,-2.871 -3.093,-1.817 -2.129,0.703 -2.727,2.676 -2.879,4.004 -0.16,1.336 -0.91,7.781 -3.797,7.676 v -6.457 c 0,-1.707 1.019,-1.23 1.019,-2.246 0,-0.645 -1.5,0.391 -2.832,0.918 -1.976,0.879 -3.148,1.183 -3.148,1.769 z m 4.969,14.356 v -6.574 c 0.429,-0.157 3.679,-2.235 3.679,1.816 0,4.063 -3.679,4.758 -3.679,4.758 z m -7.149,-24.582 c 0.317,1.015 -0.648,1.308 -0.465,1.738 0.145,0.313 1.477,-0.398 2.274,-0.781 0.797,-0.371 2.027,-0.692 2.351,-1.785 0.317,-1.094 4.508,-15.383 4.907,-16.7 0.449,-1.496 1.332,-1.074 1.07,-1.769 -0.098,-0.262 -1.34,0.324 -3.762,1.289 -2.023,0.793 -3.023,1.047 -3.023,1.367 0,0.664 2.039,-0.418 1.554,0.969 -0.316,0.926 -1.019,3.379 -1.019,3.379 l -5.629,1.836 -0.801,-2.727 c -0.394,-1.355 0.883,-1.14 0.645,-1.648 -0.133,-0.274 -0.934,0.078 -1.973,0.508 -1.004,0.398 -1.433,0.488 -1.387,0.769 0.047,0.481 0.848,-0.215 1.227,0.774 0.367,0.984 3.75,11.902 4.031,12.781 z m 0.891,-1.875 -1.961,-6.317 4.383,-1.464 -2.422,7.781 z M 302.77,353.516 V 166.203 C 304.84,54.2969 213.313,14.6016 152.91,14.6016 92.5117,14.6016 0.972656,54.2969 3.05469,166.203 V 353.516 H 58.9141 c -0.3047,3.461 0.6367,5.871 0.7304,5.98 76.3085,15.285 113.2185,16.004 189.4685,-0.035 1.641,-1.984 1.95,-4.106 1.668,-5.945 H 302.77 Z M 30.9844,82.0039 l 58.5,62.2931 V 162.5 l -6.6328,0.227 c 0,0 -4.5508,1.257 -3.4219,5.769 1.0117,4.063 5.3516,3.156 5.3516,3.156 0,0 -1.0313,3.75 2.7929,5.469 0.6992,0.313 1.3281,0.449 1.918,0.457 v 12.07 L 16.3945,111.809 c 3.75,-11.055 8.711,-20.9692 14.5899,-29.8051 z M 103.789,241.203 c 0.793,0.352 1.594,0.731 2.395,1.121 2.816,1.422 7.91,4.082 13.371,6.391 5.379,2.277 11.734,4.496 16.84,4.496 5.125,0 9.246,-1.539 12.078,-3.063 1.422,-0.761 2.531,-1.535 3.3,-2.125 l 0.282,-0.23 c 0.109,0.152 0.218,0.312 0.359,0.48 0.59,0.727 1.449,1.555 2.699,2.336 2.492,1.575 6.309,2.809 12.09,2.809 6.059,0 12.863,-2.422 18.34,-4.898 l 1.262,-0.586 93.988,100.093 H 238.215 L 155.43,259.879 v 42.43 l 42.929,45.718 H 8.53125 V 166.145 c -0.11719,-6.79 0.11328,-13.313 0.66797,-19.563 l 40.95308,43.613 h 39.3399 v 34.766 c -0.7305,-1.016 -1.8477,-0.828 -1.8477,-0.828 0,0 0.9883,2.996 -1.7382,3.426 -0.2149,0.031 -0.4297,0.05 -0.6836,0.05 -1.5391,0 -2.418,-0.773 -3.3516,-1.515 -1.4492,-1.16 -5.7461,-6.199 -6.5898,-7.031 -0.8399,0.832 -5.1485,5.871 -6.5977,7.031 -0.9336,0.742 -1.8125,1.515 -3.3516,1.515 -0.2461,0 -0.4804,-0.019 -0.6757,-0.05 -2.7461,-0.43 -1.7461,-3.426 -1.7461,-3.426 0,0 -2.4805,-0.422 -2.4805,3.359 0,2.656 2.1367,4.227 4.0117,4.715 2.832,0.664 5.6445,0.859 6.1719,5.566 0.0273,0.938 -0.1289,1.133 -0.1289,1.133 0,0 -1.0196,-1.562 -3.5313,-2.754 -2.9218,-1.523 -10.8203,-1.425 -10.6172,-5.937 -0.0664,-1.817 1.918,-1.641 1.918,-1.641 0,0 -0.1016,-0.82 -1.4297,-1.023 -0.2929,-0.039 -0.6406,-0.059 -1.0625,-0.031 -1.8281,0.253 -2.4414,2.187 -2.3086,4.628 0.1094,1.536 -0.9023,3.555 -2.8789,3.262 -0.3515,-0.058 -0.7226,-0.183 -1.1328,-0.39 -1.5117,-0.887 -0.9766,-2.325 -0.9766,-2.325 0,0 -1.7109,0.957 -1.4531,2.95 0.2305,1.718 1.3594,2.5 2.961,3.144 0.1992,0.051 0.3906,0.09 0.582,0.117 2.0508,0.313 3.7773,-0.293 3.7773,-0.293 0,0 -0.5273,1.555 -0.3398,3.106 0.168,1.34 0.8672,2.676 2.8711,3.047 2.9765,0.562 3.6211,-1.434 3.1758,-2.539 -0.1641,-0.098 -0.6953,0.687 -1.5469,0.566 -0.1211,-0.02 -0.25,-0.059 -0.3906,-0.125 -0.4883,-0.254 -0.7813,-0.586 -0.9375,-0.949 -0.5039,-1.18 0.4882,-2.676 0.6484,-2.918 0.6016,-0.793 2.4375,-1.36 4.7266,-0.918 2.664,0.566 4.5507,2.293 5.4765,3.836 0.4883,0.801 0.7071,1.554 0.6289,2.051 l 1.4493,16.105 c 0,0 0.4609,4.129 -2.3633,4.613 -0.3164,0.067 -0.6602,0.075 -0.9961,0.024 -2.3828,-0.379 -4.8633,-3.555 -4.0821,-7.528 0.6016,-3.046 -0.9609,-5.371 -2.4609,-5.718 -1.9101,-0.45 -3.0703,-0.063 -3.7383,1.32 3.3282,0.227 3.1172,2.898 2.0703,3.844 -0.4492,0.41 -1.1015,0.519 -1.8437,0.406 -3.1094,-0.488 -8.0352,-4.77 -8.8281,-7.328 -0.7071,-2.301 1.0117,-1.711 1.7382,-3.649 0.5938,-1.562 -0.7265,-2.796 -0.7265,-2.796 -0.0391,-0.524 -0.1133,-0.973 -0.1992,-1.344 -0.3516,-1.348 -1.0586,-1.797 -1.7149,-1.883 -0.5078,-0.09 -0.9844,0.047 -1.2344,0.125 0.8282,0.363 1.0782,1.133 1.1485,1.758 0.0586,0.429 0.0078,0.801 0.0078,0.801 0,0 -0.9258,-0.106 -1.7266,1.144 -0.9531,1.465 0.2071,1.918 -0.8203,3.488 -1.0508,1.582 -3.9531,3.27 -6.2226,3.551 -0.1524,0.02 -0.2891,0.016 -0.418,-0.004 -0.4492,-0.062 -0.8711,-0.289 -1.5391,-0.394 -0.1992,-0.032 -0.4218,-0.051 -0.6601,-0.059 -1.8008,-0.035 -1.3125,1.055 -2.7735,0.93 -0.7695,-0.156 -1.2109,-0.883 -0.957,-1.934 0.0391,-0.14 -0.082,-0.242 -0.082,-0.242 -0.8125,0.547 -1.1485,1.297 -1.1953,2.172 -0.0274,2.328 1.4531,3.965 2.8554,4.098 1.6602,0.16 2.4297,-0.875 2.5625,-1.067 0.9102,3.856 -2.1132,2.547 -3.5742,4.406 -0.9765,1.274 -0.5859,1.918 -0.457,2.379 0.1992,0.703 -1.0117,0.785 -1.9297,0.645 -0.2578,-0.039 -0.5039,-0.098 -0.668,-0.168 -0.1836,0.176 0.2852,1.969 2.1875,2.258 0.6563,0.101 1.4766,0.027 2.5274,-0.368 0.9804,0.297 1.9258,-0.187 2.2695,-0.855 0.4219,-0.805 0.0742,-1.719 0.1914,-2.707 0.293,-2.563 1.8594,-2.492 2.1016,-2.469 -1.3867,3.664 0.3593,4.75 0.539,5.324 0.1836,0.575 -0.039,1.352 -0.9492,1.672 -0.1914,0.071 -0.4492,0.231 -0.1484,0.305 0,0 3.5078,0.156 4.0469,-2.141 0,0 1.5117,-0.8 1.5507,-2.691 0.043,-2.367 -1.2422,-2.586 -1.7304,-3.059 0.3632,-2.464 1.8203,-2.871 3.1875,-2.668 1.3437,0.211 2.5859,1.008 2.5859,1.008 2.3086,0.914 7.1094,3.871 5.8203,6.297 -0.6015,1.109 -1.5742,1.578 -2.6445,1.418 -0.4961,-0.078 -1.0274,-0.305 -1.5352,-0.664 -1.3945,-1.324 -0.7031,-3.062 -0.7031,-3.062 -2.1094,-0.563 -3.1016,3.097 -1.7773,4.66 0.9179,1.082 2.0507,1.523 3.2539,1.73 1.3945,0.242 2.8828,0.188 4.2929,0.469 1.6914,0.348 2.9805,1.398 4.2305,3.59 0.9219,1.531 0.9492,3.633 0.1484,5.312 -0.8203,1.844 -2.5,4.145 -4.875,4.574 -0.457,-3.972 -2.6445,-7.101 -5.3242,-9.011 -0.6601,-0.453 -1.5273,-0.719 -2.1094,-0.805 -0.4687,-0.074 -0.7695,-0.039 -0.6601,0.09 3.4922,4.082 2.5898,8.367 2.4922,8.781 -0.25,-0.48 -2.9844,-5.484 -7.8516,-7.621 -0.4687,-0.207 -0.9609,-0.34 -1.4609,-0.41 -2.6211,-0.41 -5.2383,0.805 -4.1992,0.941 1.7382,0.235 8.7109,4.285 6.6132,12.887 -0.2734,-0.496 -3.3398,-5.973 -7.125,-8.566 -1.6054,-1.102 -3.2773,-1.661 -4.7812,-1.891 -2.9688,-0.461 -5.2383,0.367 -4.8203,0.758 0,0 8.2226,3.883 8.332,7.601 -0.2695,-0.214 -2.5,-1.933 -5.0898,-2.332 -0.3516,-0.054 -0.6953,-0.082 -1.0586,-0.082 -7.0117,0 -7.0117,5.039 -7.0117,5.039 0.5,-0.047 7.0429,-0.48 12.3945,10.883 0,0 -3.4922,-1.234 -7.5,-1.676 -2.3945,-0.261 -3.3945,1.235 -3.1133,1.211 0.4219,-0.136 0.8984,-0.175 1.4922,-0.086 1.3164,0.204 3.207,1.043 5.5898,2.871 -0.6406,0.282 -9.2343,4.094 -5.914,9.989 0,0 2.3828,-2.071 5.3047,-2.328 2.1367,-0.188 5.8867,0.218 6.7851,2.367 0,0 -4.6289,0.273 -9.168,3.129 -2.6757,1.676 -3.7304,5.644 -2.75,4.488 1,-1.176 2.0313,-1.523 3.5704,-1.922 1.1992,-0.308 2.0195,-0.012 2.0195,-0.012 0,0 -6.668,6.321 -2.4492,11.215 0,0 2.25,-6.289 7.7812,-6.312 0,0 -2.8008,2.609 -3.3633,5.719 -0.3867,2.148 -0.2304,4.988 0.1602,4.167 0.2734,-0.554 0.8711,-1.562 1.2617,-2.292 0.6914,-1.243 2.1719,-2.907 3.3477,-3.922 0,0 -0.8399,3.293 0.3047,6.281 0.164,0.457 1.7187,2.976 1.8164,2.348 0,0 0.0312,-1.977 0.1289,-2.61 0.3437,-2.117 1.1523,-4.773 5.1523,-8.84 5.0703,-5.175 10.5703,-5.136 10.6211,-8.367 -0.2109,-3.848 -4.9531,-3.351 -8.0625,-3.078 -1.0781,0 -0.9258,-1.652 -0.0391,-2.84 2.5899,-3.449 13.5782,-4.289 17.0235,1.328 1.2031,1.965 1.5351,4.332 0.7148,6.52 -1.039,2.922 -3.3984,3.008 -7.8789,3.988 -3.1797,0.68 -2.3203,2.117 -1.8515,2.117 0,0 0.9726,-0.554 1.914,-0.558 2.3477,-0.008 0.918,3.011 0.668,2.972 -0.5977,-0.089 -3.1367,-1.105 -5.332,-1.293 -2.7657,-0.25 -6.1055,0.86 -6.1055,2.789 0,2.325 2.9101,2.969 2.7773,2.364 -0.0312,-0.149 -1.75,-3.285 3.3789,-3.121 1.6211,0.05 4.8907,0.238 4.8829,0.382 -0.1016,0.864 -1.6211,2.09 -2.7774,2.09 -0.8672,0 -1.6523,-0.226 -3.2226,-0.058 -0.5625,1.379 0.9375,2.781 1.9726,3.289 1.0234,0.519 1.7656,0.277 2.2149,0.441 0.6015,0.207 0.9609,2.102 4.3906,2.153 1.8008,0.023 4.4179,-1.223 5.6211,-1.223 1.1992,0 3.3398,0.777 3.5586,0.398 0.2109,-0.398 -0.8594,-1.636 -0.6407,-2.711 -0.1054,-2.504 4.2305,-12.433 8.8086,-13.371 4.5821,0.938 8.9297,10.867 8.8243,13.371 0.2109,1.075 -0.8516,2.313 -0.6407,2.711 0.211,0.379 2.3594,-0.398 3.5586,-0.398 1.2031,0 3.8203,1.246 5.6211,1.223 3.4297,-0.051 3.7891,-1.946 4.3906,-2.153 0.4493,-0.164 1.1797,0.078 2.211,-0.441 1.0276,-0.508 2.5316,-1.91 1.9806,-3.289 -1.5705,-0.168 -2.3712,0.058 -3.2189,0.058 -1.1641,0 -2.6836,-1.226 -2.7852,-2.09 -0.0195,-0.144 3.2618,-0.332 4.8831,-0.382 5.129,-0.164 3.41,2.972 3.371,3.121 -0.133,0.605 2.789,-0.039 2.789,-2.364 0,-1.929 -3.344,-3.039 -6.121,-2.789 -2.1838,0.188 -4.7228,1.204 -5.3205,1.293 -0.25,0.039 -1.6914,-2.98 0.6719,-2.972 0.9375,0.004 1.9101,0.558 1.9101,0.558 0.4688,0 1.3282,-1.437 -1.8515,-2.117 -4.4805,-0.98 -6.8399,-1.066 -7.8907,-3.988 -0.8085,-2.188 -0.4765,-4.555 0.7266,-6.52 3.4453,-5.617 14.4341,-4.777 17.0231,-1.328 0.887,1.188 1.039,2.84 -0.05,2.84 -3.098,-0.273 -7.8403,-0.77 -8.0512,3.078 0.0508,3.231 5.5512,3.192 10.6212,8.367 4,4.067 4.808,6.723 5.152,8.84 0.098,0.633 0.129,2.61 0.129,2.61 0.102,0.628 1.649,-1.891 1.817,-2.348 1.144,-2.988 0.304,-6.281 0.304,-6.281 1.176,1.015 2.66,2.679 3.352,3.922 0.387,0.73 0.988,1.738 1.25,2.292 0.387,0.821 0.551,-2.019 0.168,-4.167 -0.563,-3.11 -3.36,-5.719 -3.36,-5.719 5.528,0.023 7.77,6.312 7.77,6.312 4.219,-4.894 -2.449,-11.215 -2.449,-11.215 0,0 0.816,-0.296 2.031,0.012 1.535,0.399 2.566,0.746 3.559,1.922 0.992,1.156 -0.059,-2.812 -2.743,-4.488 -4.539,-2.856 -9.168,-3.129 -9.168,-3.129 0.899,-2.149 4.649,-2.555 6.786,-2.367 2.921,0.257 5.304,2.328 5.304,2.328 3.321,-5.895 -5.285,-9.707 -5.914,-9.989 2.383,-1.828 4.274,-2.667 5.594,-2.871 0.59,-0.089 1.066,-0.05 1.488,0.086 0.281,0.024 -0.719,-1.472 -3.109,-1.211 -4.012,0.442 -7.5,1.676 -7.5,1.676 5.347,-11.363 11.887,-10.93 12.39,-10.883 0,0 0,-5.039 -7.011,-5.039 -0.356,0 -0.707,0.028 -1.059,0.082 -2.59,0.399 -4.82,2.118 -5.09,2.332 0.11,-3.718 8.321,-7.601 8.321,-7.601 0.429,-0.391 -1.84,-1.219 -4.809,-0.758 -1.504,0.23 -3.176,0.789 -4.781,1.891 -3.793,2.593 -6.852,8.07 -7.133,8.566 -2.09,-8.602 4.883,-12.652 6.621,-12.887 1.031,-0.136 -1.586,-1.351 -4.199,-0.941 -0.496,0.07 -0.992,0.203 -1.461,0.41 -4.875,2.137 -7.598,7.141 -7.852,7.621 -0.097,-0.414 -1.004,-4.699 2.493,-8.781 0.113,-0.129 -0.192,-0.164 -0.661,-0.09 -0.589,0.086 -1.449,0.352 -2.109,0.805 -2.6797,1.91 -4.8672,5.039 -5.3321,9.011 -2.3671,-0.429 -4.0468,-2.73 -4.8671,-4.574 -0.8008,-1.679 -0.7735,-3.781 0.1406,-5.312 1.2578,-2.192 2.5469,-3.242 4.2383,-3.59 1.4101,-0.281 2.8984,-0.227 4.2813,-0.469 1.223,-0.207 2.348,-0.648 3.266,-1.73 1.324,-1.563 0.324,-5.223 -1.786,-4.66 0,0 0.7,1.738 -0.695,3.062 -0.508,0.359 -1.039,0.586 -1.5351,0.664 -1.0703,0.16 -2.0508,-0.309 -2.6445,-1.418 -1.2891,-2.426 3.5116,-5.383 5.8126,-6.297 0,0 1.25,-0.797 2.594,-1.008 1.355,-0.203 2.828,0.204 3.175,2.668 -0.488,0.473 -1.769,0.692 -1.726,3.059 0.039,1.891 1.558,2.691 1.558,2.691 0.54,2.297 4.051,2.141 4.051,2.141 0.297,-0.074 0.039,-0.234 -0.16,-0.305 -0.902,-0.32 -1.125,-1.097 -0.941,-1.672 0.179,-0.574 1.933,-1.66 0.539,-5.324 0.242,-0.023 1.812,-0.094 2.101,2.469 0.106,0.988 -0.23,1.902 0.192,2.707 0.351,0.668 1.277,1.152 2.269,0.855 1.039,0.395 1.871,0.469 2.528,0.368 1.902,-0.289 2.371,-2.082 2.371,-2.082 0,0 0.019,-0.231 -0.192,-0.176 -0.172,0.07 -0.398,0.129 -0.66,0.168 -0.918,0.14 -2.129,0.058 -1.93,-0.645 0.133,-0.461 0.52,-1.105 -0.468,-2.379 -1.45,-1.859 -4.469,-0.55 -3.559,-4.406 0.117,0.192 0.891,1.227 2.559,1.067 1.402,-0.133 2.882,-1.77 2.863,-4.098 -0.055,-0.875 -0.391,-1.625 -1.203,-2.172 0,0 -0.121,0.102 -0.094,0.242 0.266,1.051 -0.18,1.778 -0.945,1.934 -1.461,0.125 -0.981,-0.965 -2.77,-0.93 -0.242,0.008 -0.465,0.027 -0.664,0.059 -0.668,0.105 -1.097,0.332 -1.539,0.394 -0.129,0.02 -0.266,0.024 -0.418,0.004 -2.269,-0.281 -5.172,-1.969 -6.223,-3.551 -1.039,-1.57 0.133,-2.023 -0.82,-3.488 -0.808,-1.25 -1.734,-1.144 -1.734,-1.144 0,0 -0.039,-0.372 0.008,-0.801 0.019,-0.164 0.058,-0.352 0.105,-0.516 z m -5.996,-2.258 c 1.4258,0.41 2.98,0.977 4.602,1.641 -0.2,0.285 -0.372,0.644 -0.504,1.133 -0.098,0.371 -0.164,0.82 -0.2,1.344 0,0 -1.32,1.234 -0.726,2.796 0.726,1.938 2.449,1.348 1.738,3.649 -0.793,2.558 -5.7186,6.84 -8.828,7.328 -0.7539,0.113 -1.3945,0.004 -1.8437,-0.406 -1.0469,-0.946 -1.2579,-3.617 2.0703,-3.844 -0.668,-1.383 -1.8282,-1.77 -3.7383,-1.32 -1.5078,0.347 -3.0703,2.672 -2.4727,5.718 0.793,3.973 -1.6875,7.149 -4.0742,7.528 -0.332,0.051 -0.6758,0.043 -0.9922,-0.024 -2.8242,-0.484 -2.3633,-4.613 -2.3633,-4.613 l 1.4493,-16.105 c -0.0782,-0.497 0.1406,-1.25 0.6211,-2.051 0.9335,-1.543 2.8203,-3.27 5.4843,-3.836 2.2891,-0.442 4.1289,0.125 4.7266,0.918 0.1601,0.242 1.1523,1.738 0.6523,2.918 -0.1601,0.363 -0.4531,0.695 -0.9414,0.949 -0.1406,0.066 -0.2695,0.105 -0.3906,0.125 -0.8516,0.121 -1.3828,-0.664 -1.5469,-0.566 -0.4414,1.105 0.1992,3.101 3.168,2.539 2.0078,-0.371 2.7109,-1.707 2.8711,-3.047 0.1992,-1.551 -0.332,-3.106 -0.332,-3.106 0,0 0.6289,0.215 1.5703,0.332 z m -8.3008,-5.75 c -0.0274,0.235 -0.0625,0.711 0.0195,1.278 -2.1797,0.625 -4.5703,0.976 -5.9101,1.679 -2.5118,1.192 -3.5274,2.754 -3.5274,2.754 0,0 -0.1601,-0.195 -0.1328,-1.133 0.5274,-4.707 3.3399,-4.902 6.168,-5.566 1.25,-0.32 2.6133,-1.133 3.3828,-2.422 v 3.41 z M 190.934,142.617 c -0.43,-0.918 -0.418,-2.637 0.218,-3.484 2.352,-3.125 11.598,-4.113 15.871,-0.078 -5.531,0.859 -10.742,2.273 -16.089,3.562 z m 25.746,8.664 c 1.383,-1.855 2.976,-3.32 4.59,-3.652 4.582,0.937 8.933,10.859 8.835,13.367 0.208,1.074 -0.859,2.317 -0.652,2.707 0.223,0.391 2.36,-0.39 3.563,-0.39 1.195,0 3.816,1.238 5.621,1.218 3.426,-0.047 3.789,-1.941 4.386,-2.156 0.45,-0.156 1.188,0.086 2.219,-0.441 1.028,-0.508 2.528,-1.903 1.973,-3.289 -1.574,-0.157 -2.363,0.066 -3.223,0.066 -1.156,0 -2.676,-1.231 -2.777,-2.098 -0.012,-0.136 3.258,-0.324 4.875,-0.383 5.133,-0.164 3.414,2.981 3.383,3.125 -0.129,0.606 2.781,-0.039 2.781,-2.363 0,-1.933 -3.34,-3.035 -6.109,-2.793 -2.192,0.188 -4.731,1.211 -5.332,1.301 -0.25,0.039 -1.68,-2.988 0.667,-2.98 0.946,0.011 1.915,0.558 1.915,0.558 0.468,0 1.328,-1.437 -1.848,-2.109 -4.484,-0.977 -6.844,-1.074 -7.883,-3.996 -0.82,-2.188 -0.492,-4.551 0.727,-6.512 3.445,-5.617 14.425,-4.777 17.011,-1.328 0.891,1.191 1.039,2.832 -0.039,2.832 -3.109,-0.274 -7.851,-0.762 -8.058,3.086 0.047,3.222 5.55,3.191 10.617,8.359 4,4.07 4.808,6.727 5.152,8.848 0.098,0.625 0.125,2.605 0.125,2.605 0.114,0.625 1.653,-1.894 1.824,-2.351 1.141,-2.989 0.301,-6.27 0.301,-6.27 1.18,1.016 2.656,2.676 3.352,3.914 0.39,0.735 0.984,1.739 1.258,2.297 0.39,0.82 0.546,-2.023 0.156,-4.172 -0.555,-3.113 -3.36,-5.722 -3.36,-5.722 5.532,0.031 7.786,6.32 7.786,6.32 4.218,-4.902 -2.453,-11.223 -2.453,-11.223 0,0 0.82,-0.293 2.023,0.02 1.535,0.39 2.566,0.742 3.566,1.926 0.981,1.152 -0.07,-2.825 -2.746,-4.493 -4.543,-2.863 -9.172,-3.136 -9.172,-3.136 0.911,-2.137 4.649,-2.547 6.797,-2.364 2.91,0.254 5.293,2.336 5.293,2.336 3.321,-5.898 -5.273,-9.707 -5.914,-10 2.387,-1.828 4.274,-2.656 5.594,-2.871 0.59,-0.09 1.066,-0.051 1.488,0.086 0.278,0.031 -0.719,-1.472 -3.101,-1.211 -4.02,0.442 -7.508,1.68 -7.508,1.68 5.351,-11.356 11.898,-10.926 12.39,-10.887 0,0 0,-5.039 -7.011,-5.039 -0.352,0 -0.707,0.039 -1.059,0.086 -2.594,0.402 -4.82,2.121 -5.094,2.336 0.114,-3.723 8.332,-7.609 8.332,-7.609 0.418,-0.391 -1.836,-1.211 -4.82,-0.75 -1.488,0.234 -3.168,0.781 -4.781,1.882 -3.777,2.598 -6.844,8.079 -7.117,8.567 -2.102,-8.594 4.871,-12.649 6.609,-12.883 1.039,-0.137 -1.582,-1.348 -4.199,-0.945 -0.5,0.078 -0.992,0.203 -1.457,0.418 -4.875,2.14 -7.606,7.14 -7.856,7.617 -0.097,-0.41 -1,-4.695 2.493,-8.777 0.113,-0.137 -0.192,-0.168 -0.661,-0.098 -0.582,0.098 -1.449,0.351 -2.109,0.808 -2.68,1.907 -4.871,5.04 -5.32,9.016 -2.371,-0.43 -4.059,-2.734 -4.879,-4.582 -0.801,-1.668 -0.774,-3.777 0.152,-5.312 1.25,-2.188 2.539,-3.243 4.227,-3.5825 1.422,-0.2851 2.91,-0.2343 4.289,-0.4687 1.211,-0.2149 2.343,-0.6563 3.261,-1.7383 1.317,-1.5547 0.332,-5.2148 -1.777,-4.6602 0,0 0.688,1.7383 -0.703,3.0665 -0.508,0.3632 -1.039,0.5859 -1.539,0.664 -1.07,0.1563 -2.039,-0.3125 -2.633,-1.414 -1.297,-2.4336 3.5,-5.3907 5.813,-6.3008 0,0 1.238,-0.7891 2.578,-1.0039 1.371,-0.2071 2.832,0.2031 3.191,2.664 -0.492,0.4688 -1.773,0.6953 -1.734,3.0586 0.047,1.8946 1.554,2.6953 1.554,2.6953 0.543,2.293 4.047,2.1368 4.047,2.1368 0.305,-0.0782 0.039,-0.2344 -0.144,-0.3008 -0.914,-0.3242 -1.133,-1.0938 -0.953,-1.6797 0.179,-0.5664 1.929,-1.6602 0.543,-5.3242 0.238,-0.0196 1.804,-0.086 2.109,2.4726 0.105,0.9844 -0.238,1.9024 0.18,2.7149 0.347,0.664 1.289,1.1406 2.269,0.8476 1.051,0.3906 1.875,0.4688 2.531,0.3633 1.899,-0.2852 2.368,-2.082 2.368,-2.082 0,0 0.031,-0.2227 -0.18,-0.1758 -0.172,0.0703 -0.41,0.1289 -0.672,0.168 -0.918,0.1445 -2.129,0.0586 -1.926,-0.6446 0.125,-0.4492 0.516,-1.0937 -0.461,-2.375 -1.464,-1.8633 -4.48,-0.5468 -3.574,-4.4023 0.133,0.1836 0.903,1.2305 2.563,1.0625 1.398,-0.1367 2.879,-1.7656 2.867,-4.1016 -0.059,-0.8672 -0.399,-1.6289 -1.203,-2.1679 0,0 -0.125,0.0976 -0.086,0.246 0.254,1.043 -0.192,1.7774 -0.946,1.9336 -1.468,0.125 -0.984,-0.9687 -2.785,-0.9296 -0.238,0 -0.457,0.0195 -0.66,0.0507 -0.668,0.1055 -1.086,0.3321 -1.527,0.3985 -0.141,0.0195 -0.281,0.0195 -0.43,0 -2.269,-0.2813 -5.172,-1.961 -6.219,-3.543 -1.031,-1.5742 0.125,-2.0312 -0.812,-3.4961 -0.809,-1.25 -1.738,-1.1523 -1.738,-1.1523 0,0 -0.039,-0.3516 0.011,-0.7813 0.067,-0.6367 0.317,-1.4062 1.118,-1.5742 0,0 0.25,-0.1172 0.031,-0.1836 -0.25,-0.0781 -0.731,-0.2148 -1.242,-0.1367 -0.649,0.0976 -1.348,0.5351 -1.711,1.8945 -0.086,0.3594 -0.161,0.8203 -0.2,1.336 0,0 -1.316,1.2421 -0.726,2.8046 0.726,1.9336 2.445,1.3477 1.738,3.6407 -0.793,2.5507 -5.719,6.8359 -8.828,7.3359 -0.742,0.1055 -1.391,0 -1.84,-0.4102 -1.051,-0.9492 -1.262,-3.625 2.07,-3.8398 -0.675,-1.3945 -1.832,-1.7852 -3.742,-1.3281 -1.504,0.3437 -3.058,2.6758 -2.461,5.7148 0.782,3.9844 -1.699,7.1485 -4.082,7.5274 -0.336,0.0507 -0.679,0.0507 -0.996,-0.0196 -2.82,-0.4882 -2.363,-4.6172 -2.363,-4.6172 l 1.449,-16.1054 c -0.066,-0.4961 0.145,-1.25 0.633,-2.0391 0.922,-1.543 2.812,-3.2734 5.469,-3.8476 2.289,-0.4297 4.129,0.125 4.73,0.9257 0.172,0.2461 1.153,1.7383 0.649,2.9219 -0.145,0.3516 -0.45,0.6836 -0.938,0.9375 -0.14,0.0664 -0.273,0.1055 -0.39,0.125 -0.848,0.1172 -1.383,-0.6523 -1.551,-0.5547 -0.442,1.0938 0.199,3.086 3.183,2.5274 1.996,-0.3711 2.7,-1.7071 2.871,-3.0352 0.184,-1.5547 -0.343,-3.1172 -0.343,-3.1172 0,0 1.73,0.6172 3.781,0.293 0.187,-0.0195 0.379,-0.0586 0.582,-0.1055 1.594,-0.6562 2.727,-1.4375 2.957,-3.1445 0.258,-1.9922 -1.449,-2.9492 -1.449,-2.9492 0,0 0.531,1.4258 -0.985,2.3047 -0.41,0.2148 -0.773,0.3398 -1.117,0.3906 -1.992,0.3008 -2.996,-1.7188 -2.89,-3.2422 0.132,-2.4414 -0.477,-4.375 -2.309,-4.6406 -0.422,-0.0274 -0.773,-0.0196 -1.059,0.039 -1.328,0.1954 -1.429,1.0157 -1.429,1.0157 0,0 1.976,-0.1758 1.918,1.6406 0.199,4.5234 -7.692,4.4258 -10.614,5.9375 -2.515,1.2031 -3.539,2.7539 -3.539,2.7539 0,0 -0.156,-0.1953 -0.125,-1.1328 0.528,-4.6953 3.34,-4.9024 6.176,-5.5547 1.879,-0.4883 4.004,-2.0625 4.004,-4.7266 0,-3.7812 -2.48,-3.3593 -2.48,-3.3593 0,0 1,3.0078 -1.743,3.4375 -0.203,0.0273 -0.429,0.0468 -0.679,0.0468 -1.539,0 -2.422,-0.7812 -3.34,-1.5234 -1.461,-1.1602 -5.75,-6.1992 -6.602,-7.0195 -0.84,0.8203 -5.144,5.8593 -6.597,7.0195 -0.93,0.7422 -1.801,1.5234 -3.348,1.5234 -0.254,0 -0.477,-0.0195 -0.684,-0.0468 -2.73,-0.4297 -1.738,-3.4375 -1.738,-3.4375 0,0 -2.48,-0.4219 -2.48,3.3593 0,2.6641 2.129,4.2383 4.007,4.7266 2.832,0.6523 5.641,0.8594 6.172,5.5547 0.028,0.9375 -0.133,1.1328 -0.133,1.1328 0,0 -1.019,-1.5508 -3.531,-2.7539 -2.918,-1.5117 -10.816,-1.4141 -10.617,-5.9375 -0.059,-1.8164 1.922,-1.6406 1.922,-1.6406 0,0 -0.102,-0.8203 -1.43,-1.0157 -0.293,-0.0586 -0.64,-0.0664 -1.058,-0.039 -1.832,0.2656 -2.442,2.1992 -2.313,4.6406 0.11,1.5234 -0.902,3.543 -2.879,3.2422 -0.351,-0.0508 -0.722,-0.1758 -1.125,-0.3906 -1.515,-0.8789 -0.984,-2.3047 -0.984,-2.3047 0,0 -1.715,0.957 -1.449,2.9492 0.226,1.707 1.367,2.4883 2.957,3.1445 0.203,0.0469 0.39,0.086 0.582,0.1055 2.054,0.3242 3.781,-0.293 3.781,-0.293 0,0 -0.535,1.5625 -0.332,3.1172 0.16,1.3281 0.855,2.6641 2.867,3.0352 2.973,0.5586 3.609,-1.4336 3.172,-2.5274 -0.16,-0.0976 -0.699,0.6719 -1.551,0.5547 -0.121,-0.0195 -0.246,-0.0586 -0.39,-0.125 -0.493,-0.2539 -0.782,-0.5859 -0.942,-0.9375 -0.496,-1.1836 0.492,-2.6758 0.656,-2.9219 0.594,-0.8007 2.438,-1.3554 4.727,-0.9257 2.672,0.5742 4.551,2.3046 5.477,3.8476 0.484,0.7891 0.703,1.543 0.625,2.0391 l 1.445,16.1054 c 0,0 0.465,4.129 -2.36,4.6172 -0.316,0.0703 -0.656,0.0703 -0.988,0.0196 -2.39,-0.3789 -4.871,-3.543 -4.078,-7.5274 0.602,-3.039 -0.961,-5.3711 -2.473,-5.7148 -1.906,-0.4571 -3.07,-0.0664 -3.738,1.3281 3.328,0.2148 3.121,2.8906 2.07,3.8398 -0.449,0.4102 -1.089,0.5157 -1.839,0.4102 -3.114,-0.5 -8.028,-4.7852 -8.829,-7.3359 -0.714,-2.293 1.004,-1.7071 1.739,-3.6407 0.59,-1.5625 -0.735,-2.8046 -0.735,-2.8046 -0.027,-0.5157 -0.097,-0.9766 -0.195,-1.336 -0.351,-1.3594 -1.062,-1.7969 -1.703,-1.8945 -0.52,-0.0781 -0.996,0.0586 -1.25,0.1367 0.832,0.3516 1.094,1.1211 1.16,1.7578 0.051,0.4297 0.012,0.7813 0.012,0.7813 0,0 -0.93,-0.0977 -1.738,1.1523 -0.954,1.4649 0.218,1.9219 -0.821,3.4961 -1.051,1.582 -3.949,3.2617 -6.222,3.543 -0.149,0.0195 -0.286,0.0195 -0.418,0 -0.442,-0.0664 -0.871,-0.293 -1.539,-0.3985 -0.204,-0.0312 -0.426,-0.0507 -0.665,-0.0507 -1.785,-0.0391 -1.308,1.0546 -2.765,0.9296 -0.774,-0.1562 -1.203,-0.8906 -0.953,-1.9336 0.043,-0.1484 -0.09,-0.246 -0.09,-0.246 -0.809,0.539 -1.152,1.3007 -1.199,2.1679 -0.02,2.336 1.457,3.9649 2.859,4.1016 1.672,0.168 2.441,-0.8789 2.559,-1.0625 0.914,3.8555 -2.11,2.539 -3.559,4.4023 -0.992,1.2813 -0.602,1.9258 -0.469,2.375 0.2,0.7032 -1.011,0.7891 -1.929,0.6446 -0.262,-0.0391 -0.493,-0.0977 -0.664,-0.168 -0.176,0.1758 0.285,1.9726 2.183,2.2578 0.66,0.1055 1.488,0.0273 2.527,-0.3633 0.993,0.293 1.922,-0.1836 2.274,-0.8476 0.418,-0.8125 0.078,-1.7305 0.187,-2.7149 0.289,-2.5586 1.872,-2.4922 2.102,-2.4726 -1.391,3.664 0.371,4.7578 0.543,5.3242 0.176,0.5859 -0.043,1.3555 -0.945,1.6797 -0.2,0.0664 -0.457,0.2226 -0.149,0.3008 0,0 3.5,0.1562 4.043,-2.1368 0,0 1.52,-0.8007 1.559,-2.6953 0.039,-2.3633 -1.242,-2.5898 -1.731,-3.0586 0.352,-2.4609 1.821,-2.8711 3.18,-2.664 1.344,0.2148 2.594,1.0039 2.594,1.0039 2.297,0.9101 7.097,3.8672 5.804,6.3008 -0.586,1.1015 -1.57,1.5703 -2.636,1.414 -0.5,-0.0781 -1.032,-0.3008 -1.543,-0.664 -1.387,-1.3282 -0.692,-3.0665 -0.692,-3.0665 -2.105,-0.5546 -3.109,3.1055 -1.789,4.6602 0.922,1.082 2.051,1.5234 3.27,1.7383 1.383,0.2344 2.871,0.1836 4.285,0.4687 1.687,0.3395 2.977,1.3945 4.234,3.5825 0.914,1.535 0.946,3.644 0.145,5.312 -0.82,1.848 -2.5,4.152 -4.875,4.582 -0.457,-3.976 -2.645,-7.109 -5.328,-9.016 -0.657,-0.457 -1.516,-0.71 -2.11,-0.808 -0.472,-0.07 -0.769,-0.039 -0.656,0.098 3.496,4.082 2.586,8.367 2.488,8.777 -0.254,-0.477 -2.972,-5.477 -7.851,-7.617 -0.469,-0.215 -0.961,-0.34 -1.449,-0.418 -2.621,-0.403 -5.239,0.808 -4.2,0.945 1.731,0.234 8.707,4.289 6.606,12.883 -0.27,-0.488 -3.34,-5.969 -7.129,-8.567 -1.609,-1.101 -3.281,-1.648 -4.781,-1.882 -2.965,-0.461 -5.239,0.359 -4.809,0.75 0,0 8.215,3.886 8.32,7.609 -0.265,-0.215 -2.5,-1.934 -5.086,-2.336 -0.351,-0.047 -0.703,-0.086 -1.058,-0.086 -7.016,0 -7.016,5.039 -7.016,5.039 0.5,-0.039 7.043,-0.469 12.391,10.887 0,0 -3.488,-1.238 -7.5,-1.68 -2.391,-0.261 -3.391,1.242 -3.106,1.211 0.418,-0.137 0.899,-0.176 1.489,-0.086 1.316,0.215 3.207,1.043 5.59,2.871 -0.633,0.293 -9.223,4.102 -5.915,10 0,0 2.379,-2.082 5.301,-2.336 2.145,-0.183 5.895,0.227 6.789,2.364 0,0 -4.629,0.273 -9.168,3.136 -0.14,0.086 -0.277,0.184 -0.41,0.282 -2.07,0 -4.199,-0.098 -6.429,-0.332 -1.469,-5.75 -6.243,-9.969 -11.891,-9.969 -5.629,0 -10.383,4.18 -11.871,9.89 -3.664,0.645 -7.196,0.735 -10.649,0.45 L 49.9023,59.707 C 57.6719,52.4414 66.1719,46.2813 75.0508,41.1445 L 150.313,121.289 V 78.8594 l -47.27,-50.3438 c 17.187,-5.8086 34.523,-8.4375 49.867,-8.4375 58.703,0 146.375,38.4492 144.371,146.0669 v 69.226 L 259.676,195.313 H 219.82 l 77.461,82.492 v 45.351 L 216.07,236.66 c 0.371,-0.312 0.59,-0.644 0.59,-1.035 l 0.02,-84.344 z m -8.758,-25.957 h 26.734 v 10.742 H 207.91 l 0.012,-10.742 z m 13.359,-20.949 c 12.012,0 13.063,11.34 13.063,11.34 h -26.211 c 0,0 1.133,-11.34 13.148,-11.34 z M 61.9219,291.359 h 26.7226 v 10.735 H 61.9102 l 0.0117,-10.735 z m 13.3594,-20.957 c 12.0117,0 13.0585,11.34 13.0585,11.34 H 62.1289 c 0,0 1.1328,-11.34 13.1524,-11.34 z M 147.375,146.867 c 0,-3.176 2.566,-5.742 5.738,-5.742 3.176,0 5.75,2.566 5.75,5.742 0,3.172 -2.574,5.75 -5.75,5.75 -3.172,0 -5.738,-2.578 -5.738,-5.75 z m -54.2227,86.571 v -88.114 c 0,0 0.9688,-1.183 6.8517,0.43 6.789,1.844 15.199,10.476 26.969,13.047 8.84,1.933 20.757,-0.852 23.543,-2.785 v 88.293 c 0,0 -5.344,5.242 -14.121,5.242 -8.571,0 -23.024,-7.703 -28.582,-10.488 -4.844,-2.422 -9.9302,-4.247 -13.6411,-4.598 -1.1172,-0.11 -1.0196,-1.027 -1.0196,-1.027 z M 170.41,159.016 c 15.313,0 23.281,-9.485 28.473,-11.555 12.09,-4.813 14.121,-2.352 14.121,-2.352 v 88.602 c 0,0.859 -1.285,0.859 -1.285,0.859 0,0 -11.785,1.809 -15.824,4.278 -3.864,2.355 -18.204,10.918 -28.692,10.918 -10.523,0 -12.41,-4.496 -12.41,-4.496 v -89.457 c 0,0 4.922,3.203 15.617,3.203 v 0"
         style="fill:#ed1639;fill-opacity:1;fill-rule:nonzero;stroke:none"
         id="path58" />
      <path
         d="m 2452.72,348.137 h 8.8 c 0,13.593 0.59,24.59 18.78,24.59 4.9,0 9.3,-0.598 13.3,-1.399 v -13.191 h -8.4 c 0,6.59 -1.3,8.797 -4.99,8.797 -4.1,0 -6.51,-2.899 -6.51,-8.895 v -9.902 h 13.1 v -5.793 h -13.1 v -31.387 c 0,-4.598 0.51,-6.297 5.61,-6.297 h 5.29 v -4.894 h -31.88 v 4.894 h 3.2 c 5.1,0 5.6,1.699 5.6,6.297 v 31.387 h -8.8 v 5.793"
         style="fill:#ed1639;fill-opacity:1;fill-rule:nonzero;stroke:none"
         id="path60" />
      <path
         d="m 2517.8,323.059 c -6.9,0 -13.09,-2.5 -13.09,-10.598 0,-4.793 3.3,-7.898 7.6,-7.898 9.39,0 10.99,9.394 11.29,18.496 z m 7.4,-14.895 h -0.2 c -3.9,-7.898 -10.1,-10 -17.2,-10 -8.59,0 -15.29,5 -15.29,14.395 0,8.293 5.3,16.289 22.39,16.289 h 8.7 v 4.601 c 0,7.391 -1.8,10.496 -9,10.496 -6.8,0 -8.29,-4.199 -8.29,-8.894 h -11.2 c 0,6.687 3.1,14.687 19.3,14.687 16.08,0 21.08,-4.492 21.08,-14.894 0,-5.098 -0.7,-19.481 -0.7,-23.887 0,-4.598 0.5,-6.297 5.6,-6.297 h 2.6 v -4.894 h -17.79 v 8.398"
         style="fill:#ed1639;fill-opacity:1;fill-rule:nonzero;stroke:none"
         id="path62" />
      <path
         d="m 2581.4,331.848 c -0.2,8.398 -1.8,12.097 -7.79,12.097 -7.6,0 -12.8,-2.996 -12.8,-19.297 0,-16.082 3.9,-20.085 11,-20.085 7.49,0 10.1,3.601 10.59,12.996 h 9.59 c 0,-10.996 -3.59,-19.395 -20.58,-19.395 -16.79,0 -23.99,10.996 -23.99,25.793 0,14.785 7.2,25.781 23.99,25.781 6.49,0 13.29,-0.996 19.59,-3.195 v -14.695 h -9.6"
         style="fill:#ed1639;fill-opacity:1;fill-rule:nonzero;stroke:none"
         id="path64" />
      <path
         d="m 2640.79,309.258 h -0.19 c -2.3,-6.688 -8.6,-11.094 -18.69,-11.094 -9.9,0 -15.89,4.504 -15.89,13.801 v 23.379 c 0,6.699 -0.5,7.597 -4.5,7.597 h -3.7 v 5.196 c 5.1,0 13.99,0.605 20.38,1.199 v -34.578 c 0,-5.899 3.21,-8.789 8.9,-8.789 8.5,0 12.2,5.39 12.2,15.683 v 13.692 c 0,6.699 -0.5,7.597 -4.5,7.597 h -3.69 v 5.196 c 5.09,0 13.98,0.605 20.38,1.199 v -38.379 c 0,-4.598 0.5,-6.297 5.6,-6.297 h 2.6 v -4.894 h -18.9 v 9.492"
         style="fill:#ed1639;fill-opacity:1;fill-rule:nonzero;stroke:none"
         id="path66" />
      <path
         d="m 2664.52,371.523 c 5.1,0 13.99,0.606 20.38,1.204 v -61.77 c 0,-4.598 0.51,-6.297 5.61,-6.297 h 2.6 v -4.894 h -29.19 v 4.894 h 3.2 c 5.1,0 5.6,1.699 5.6,6.297 v 47.773 c 0,6.7 -0.5,7.598 -4.51,7.598 h -3.69 v 5.195"
         style="fill:#ed1639;fill-opacity:1;fill-rule:nonzero;stroke:none"
         id="path68" />
      <path
         d="m 2697.32,348.137 c 9.29,1.101 11.49,4.004 12.29,14.09 h 8.69 v -14.09 h 16 v -5.793 h -16 v -31.785 c 0,-4.297 1.6,-6.192 5.21,-6.192 3.59,0 5.19,1.895 5.19,6.192 v 5.097 h 8.39 v -2.199 c 0,-10.691 -5.59,-15.488 -15.28,-15.488 -10.1,0 -15.69,3.301 -15.69,15.695 v 28.68 h -8.8 v 5.793"
         style="fill:#ed1639;fill-opacity:1;fill-rule:nonzero;stroke:none"
         id="path70" />
      <path
         d="m 2748.81,336.945 c -2,4.793 -3.2,6.297 -5.6,6.297 h -1.5 v 4.895 h 24.79 v -4.895 h -3.7 c -1.69,0 -2.7,-0.398 -2.7,-1.797 0,-1.504 0.7,-2.898 1.3,-4.5 l 8.2,-22.187 9.09,23.289 c 0.6,1.398 1.11,2.598 1.11,3.496 0,1.398 -0.71,1.699 -2.41,1.699 h -4.19 v 4.895 h 21.19 v -4.895 h -2.2 c -2.1,0 -3,-1.601 -4.4,-4.902 l -19.59,-46.863 c -0.6,-1.407 -1.6,-3.704 -1.6,-5.305 0,-2.098 1.1,-2.996 4.99,-2.996 h 3.3 v -4.895 h -26.78 v 4.895 h 4.5 c 3.8,0 5.1,2.097 6.4,5.594 l 4.79,12.199 -14.99,35.976"
         style="fill:#ed1639;fill-opacity:1;fill-rule:nonzero;stroke:none"
         id="path72" />
      <path
         d="m 2851.1,303.965 c 8.19,0 11.19,6.398 11.19,19.992 0,13.594 -3,19.988 -11.19,19.988 -8.2,0 -11.2,-6.394 -11.2,-19.988 0,-13.594 3,-19.992 11.2,-19.992 z m 0,45.773 c 16.79,0 23.98,-10.996 23.98,-25.781 0,-14.797 -7.19,-25.793 -23.98,-25.793 -16.79,0 -23.99,10.996 -23.99,25.793 0,14.785 7.2,25.781 23.99,25.781"
         style="fill:#ed1639;fill-opacity:1;fill-rule:nonzero;stroke:none"
         id="path74" />
      <path
         d="m 2880.71,348.137 h 8.8 c 0,13.593 0.6,24.59 18.79,24.59 4.9,0 9.3,-0.598 13.29,-1.399 v -13.191 h -8.39 c 0,6.59 -1.3,8.797 -5,8.797 -4.1,0 -6.5,-2.899 -6.5,-8.895 v -9.902 h 13.1 v -5.793 h -13.1 v -31.387 c 0,-4.598 0.51,-6.297 5.61,-6.297 h 5.29 v -4.894 h -31.89 v 4.894 h 3.21 c 5.1,0 5.59,1.699 5.59,6.297 v 31.387 h -8.8 v 5.793"
         style="fill:#ed1639;fill-opacity:1;fill-rule:nonzero;stroke:none"
         id="path76" />
      <path
         d="m 2950.62,315.363 h 8.39 c 0,-7.101 1.9,-11.699 8.79,-11.699 6.4,0 10.6,2.695 10.6,7.293 0,3.703 -1.4,5.898 -10.6,8.703 -11.59,3.496 -17.18,7.695 -17.18,15.488 0,9.09 8.19,14.59 19.99,14.59 7.59,0 14.28,-1.398 17.18,-2.695 v -13.691 h -8.39 c 0,7.695 -1.9,10.886 -9.1,10.886 -4.6,0 -7.5,-1.894 -7.5,-5.898 0,-3.789 2.6,-6.492 7.2,-7.988 l 8.2,-2.704 c 8.6,-2.793 12.39,-5.695 12.39,-13.293 0,-11.687 -11.1,-16.191 -21.58,-16.191 -8.2,0 -15.49,2.004 -18.39,3.203 v 13.996"
         style="fill:#ed1639;fill-opacity:1;fill-rule:nonzero;stroke:none"
         id="path78" />
      <path
         d="m 3031.59,331.848 c -0.19,8.398 -1.79,12.097 -7.79,12.097 -7.6,0 -12.79,-2.996 -12.79,-19.297 0,-16.082 3.89,-20.085 10.99,-20.085 7.49,0 10.1,3.601 10.6,12.996 h 9.59 c 0,-10.996 -3.59,-19.395 -20.59,-19.395 -16.78,0 -23.98,10.996 -23.98,25.793 0,14.785 7.2,25.781 23.98,25.781 6.5,0 13.29,-0.996 19.59,-3.195 v -14.695 h -9.6"
         style="fill:#ed1639;fill-opacity:1;fill-rule:nonzero;stroke:none"
         id="path80" />
      <path
         d="m 3062.11,372.727 c 4.7,0 7.3,-3.196 7.3,-7.493 0,-4.304 -2.6,-7.5 -7.3,-7.5 -4.7,0 -7.29,3.196 -7.29,7.5 0,4.297 2.59,7.493 7.29,7.493 z m -14.09,-24.59 c 5.1,0 13.98,0.605 20.38,1.199 v -38.379 c 0,-4.598 0.51,-6.297 5.61,-6.297 h 2.59 v -4.894 h -29.19 v 4.894 h 3.21 c 5.09,0 5.59,1.699 5.59,6.297 v 24.387 c 0,6.699 -0.5,7.597 -4.5,7.597 h -3.69 v 5.196"
         style="fill:#ed1639;fill-opacity:1;fill-rule:nonzero;stroke:none"
         id="path82" />
      <path
         d="m 3117.39,328.945 c 0,8.203 -2.1,15.293 -10.69,15.293 -8.59,0 -11.09,-6.894 -11.09,-15.293 z m -21.78,-5.789 c 0,-6.797 0.09,-19.191 12.39,-19.191 7.29,0 10.29,3.898 10.39,11.398 h 10.2 c -0.1,-8.605 -5.1,-17.199 -21.79,-17.199 -16.79,0 -23.99,10.996 -23.99,25.793 0,14.785 7.2,25.781 23.99,25.781 16.09,0 22.79,-7.492 22.79,-24.289 v -2.293 h -33.98"
         style="fill:#ed1639;fill-opacity:1;fill-rule:nonzero;stroke:none"
         id="path84" />
      <path
         d="m 3137.01,348.137 c 5.1,0 13.99,0.605 18.89,1.199 v -11.094 h 0.2 c 3.39,8.098 9.1,11.496 17.19,11.496 9.8,0 17.39,-4.394 17.39,-15.187 v -23.594 c 0,-4.598 0.5,-6.297 5.6,-6.297 h 2.6 v -4.894 h -27.39 v 4.894 h 1.4 c 5.1,0 5.6,1.699 5.6,6.297 v 20.695 c 0,7.09 -3.4,10.293 -8.8,10.293 -7.3,0 -12.3,-5.195 -12.3,-14.59 v -16.398 c 0,-4.598 0.51,-6.297 5.61,-6.297 h 1.4 v -4.894 h -27.99 v 4.894 h 3.2 c 5.1,0 5.6,1.699 5.6,6.297 v 24.387 c 0,6.699 -0.5,7.597 -4.51,7.597 h -3.69 v 5.196"
         style="fill:#ed1639;fill-opacity:1;fill-rule:nonzero;stroke:none"
         id="path86" />
      <path
         d="m 3237.29,331.848 c -0.2,8.398 -1.8,12.097 -7.8,12.097 -7.59,0 -12.79,-2.996 -12.79,-19.297 0,-16.082 3.9,-20.085 11,-20.085 7.49,0 10.09,3.601 10.59,12.996 h 9.59 c 0,-10.996 -3.59,-19.395 -20.58,-19.395 -16.79,0 -23.99,10.996 -23.99,25.793 0,14.785 7.2,25.781 23.99,25.781 6.49,0 13.29,-0.996 19.59,-3.195 v -14.695 h -9.6"
         style="fill:#ed1639;fill-opacity:1;fill-rule:nonzero;stroke:none"
         id="path88" />
      <path
         d="m 3289.69,328.945 c 0,8.203 -2.1,15.293 -10.69,15.293 -8.6,0 -11.1,-6.894 -11.1,-15.293 z m -21.79,-5.789 c 0,-6.797 0.1,-19.191 12.39,-19.191 7.3,0 10.3,3.898 10.4,11.398 h 10.19 c -0.1,-8.605 -5.1,-17.199 -21.79,-17.199 -16.78,0 -23.98,10.996 -23.98,25.793 0,14.785 7.2,25.781 23.98,25.781 16.1,0 22.8,-7.492 22.8,-24.289 v -2.293 h -33.99"
         style="fill:#ed1639;fill-opacity:1;fill-rule:nonzero;stroke:none"
         id="path90" />
      <path
         d="m 2478.91,203.059 c -6.91,0 -13.1,-2.5 -13.1,-10.598 0,-4.793 3.3,-7.898 7.6,-7.898 9.39,0 11,9.394 11.29,18.496 z m 7.39,-14.895 h -0.2 c -3.9,-7.898 -10.09,-10 -17.19,-10 -8.6,0 -15.3,5 -15.3,14.395 0,8.293 5.31,16.289 22.4,16.289 h 8.69 v 4.601 c 0,7.391 -1.8,10.496 -9,10.496 -6.79,0 -8.29,-4.199 -8.29,-8.894 h -11.2 c 0,6.687 3.11,14.687 19.3,14.687 16.08,0 21.08,-4.492 21.08,-14.894 0,-5.098 -0.7,-19.481 -0.7,-23.887 0,-4.598 0.51,-6.297 5.61,-6.297 h 2.59 v -4.894 h -17.79 v 8.398"
         style="fill:#ed1639;fill-opacity:1;fill-rule:nonzero;stroke:none"
         id="path92" />
      <path
         d="m 2508.92,228.137 c 5.1,0 13.98,0.605 18.88,1.199 v -11.094 h 0.2 c 3.4,8.098 9.1,11.496 17.2,11.496 9.79,0 17.38,-4.394 17.38,-15.187 v -23.594 c 0,-4.598 0.51,-6.297 5.61,-6.297 h 2.59 v -4.894 h -27.39 v 4.894 h 1.41 c 5.09,0 5.59,1.699 5.59,6.297 v 20.695 c 0,7.09 -3.4,10.293 -8.8,10.293 -7.29,0 -12.29,-5.195 -12.29,-14.59 v -16.398 c 0,-4.598 0.51,-6.297 5.6,-6.297 h 1.4 v -4.894 h -27.99 v 4.894 h 3.21 c 5.09,0 5.59,1.699 5.59,6.297 v 24.387 c 0,6.699 -0.5,7.597 -4.5,7.597 h -3.69 v 5.196"
         style="fill:#ed1639;fill-opacity:1;fill-rule:nonzero;stroke:none"
         id="path94" />
      <path
         d="m 2600.8,222.539 c -7,0 -10.99,-4.59 -10.99,-18.289 0,-13.086 4.1,-18.887 11.39,-18.887 5.79,0 10.7,4.903 10.7,17.188 0,14.199 -4.2,19.988 -11.1,19.988 z m 11.99,-34.98 h -0.2 c -2.6,-6.192 -7.89,-9.395 -15.49,-9.395 -11.89,0 -20.09,8.703 -20.09,25.09 0,18.789 7.7,26.484 19.99,26.484 7.09,0 11.6,-3.496 14.29,-7.89 h 0.21 v 16.882 c 0,6.7 -0.5,7.598 -4.51,7.598 h -3.69 v 5.195 c 5.1,0 13.99,0.606 20.38,1.204 v -61.77 c 0,-4.598 0.51,-6.297 5.6,-6.297 h 3.2 v -4.894 h -19.69 v 7.793"
         style="fill:#ed1639;fill-opacity:1;fill-rule:nonzero;stroke:none"
         id="path96" />
      <path
         d="m 2700.5,208.945 c 0,8.203 -2.1,15.293 -10.69,15.293 -8.6,0 -11.1,-6.894 -11.1,-15.293 z m -21.79,-5.789 c 0,-6.797 0.1,-19.191 12.4,-19.191 7.29,0 10.29,3.898 10.39,11.398 h 10.19 c -0.1,-8.605 -5.1,-17.199 -21.79,-17.199 -16.78,0 -23.98,10.996 -23.98,25.793 0,14.785 7.2,25.781 23.98,25.781 16.1,0 22.8,-7.492 22.8,-24.289 v -2.293 h -33.99"
         style="fill:#ed1639;fill-opacity:1;fill-rule:nonzero;stroke:none"
         id="path98" />
      <path
         d="m 2720.12,228.137 c 5.1,0 13.98,0.605 18.89,1.199 v -11.094 h 0.19 c 3.4,8.098 9.1,11.496 17.2,11.496 9.79,0 17.38,-4.394 17.38,-15.187 v -23.594 c 0,-4.598 0.51,-6.297 5.61,-6.297 h 2.59 v -4.894 h -27.39 v 4.894 h 1.41 c 5.1,0 5.59,1.699 5.59,6.297 v 20.695 c 0,7.09 -3.39,10.293 -8.8,10.293 -7.29,0 -12.29,-5.195 -12.29,-14.59 v -16.398 c 0,-4.598 0.51,-6.297 5.61,-6.297 h 1.39 v -4.894 h -27.99 v 4.894 h 3.21 c 5.09,0 5.59,1.699 5.59,6.297 v 24.387 c 0,6.699 -0.5,7.597 -4.5,7.597 h -3.69 v 5.196"
         style="fill:#ed1639;fill-opacity:1;fill-rule:nonzero;stroke:none"
         id="path100" />
      <path
         d="m 2811,224.238 c -5.6,0 -8.6,-3.289 -8.6,-11.992 0,-8.992 3.4,-12.793 8.71,-12.793 5.39,0 7.89,4.199 7.89,12.891 0,9.101 -3.2,11.894 -8,11.894 z m -0.1,-43.672 c -8.99,0 -11.99,-4.394 -11.99,-9.695 0,-4.894 3.3,-8.898 11.69,-8.898 9.5,0 12.6,4.804 12.6,9.394 0,5.098 -3.61,9.199 -12.3,9.199 z m 26.79,41.973 h -9.7 v -0.195 c 2.5,-1.903 4.39,-5.801 4.39,-10.098 0,-7.996 -4.39,-15.488 -18.38,-17.793 l -2.4,-0.39 c -3.3,-0.508 -7.8,-1.004 -7.8,-4.305 0,-2.793 1.81,-3.789 12.79,-4.59 9.41,-0.703 18.8,-2.102 18.8,-13.898 0,-9.297 -9.2,-14.793 -25.98,-14.793 -15.79,0 -22.7,6.394 -22.7,14.492 0,8.094 8.3,11.797 15.29,12.5 v 0.195 c -6.69,1.297 -8.99,2.996 -8.99,6.395 0,3.203 2.9,5.703 9.79,6.3 v 0.196 c -7.49,2.402 -13.19,6.902 -13.19,15.996 0,9.695 8.59,17.187 21.69,17.187 4.2,0 8.8,-1.3 11.59,-2.101 l 14.8,1.301 v -6.399"
         style="fill:#ed1639;fill-opacity:1;fill-rule:nonzero;stroke:none"
         id="path102" />
      <path
         d="m 2856.52,252.727 c 4.69,0 7.29,-3.196 7.29,-7.493 0,-4.304 -2.6,-7.5 -7.29,-7.5 -4.7,0 -7.3,3.196 -7.3,7.5 0,4.297 2.6,7.493 7.3,7.493 z m -14.1,-24.59 c 5.1,0 13.99,0.605 20.38,1.199 v -38.379 c 0,-4.598 0.51,-6.297 5.61,-6.297 h 2.6 v -4.894 h -29.19 v 4.894 h 3.2 c 5.1,0 5.6,1.699 5.6,6.297 v 24.387 c 0,6.699 -0.5,7.597 -4.5,7.597 h -3.7 v 5.196"
         style="fill:#ed1639;fill-opacity:1;fill-rule:nonzero;stroke:none"
         id="path104" />
      <path
         d="m 2875.82,228.137 c 5.1,0 13.99,0.605 18.89,1.199 v -11.094 h 0.19 c 3.4,8.098 9.11,11.496 17.2,11.496 9.8,0 17.38,-4.394 17.38,-15.187 v -23.594 c 0,-4.598 0.51,-6.297 5.61,-6.297 h 2.6 v -4.894 h -27.4 v 4.894 h 1.41 c 5.1,0 5.6,1.699 5.6,6.297 v 20.695 c 0,7.09 -3.4,10.293 -8.8,10.293 -7.3,0 -12.3,-5.195 -12.3,-14.59 v -16.398 c 0,-4.598 0.51,-6.297 5.61,-6.297 h 1.39 v -4.894 h -27.98 v 4.894 h 3.2 c 5.1,0 5.6,1.699 5.6,6.297 v 24.387 c 0,6.699 -0.5,7.597 -4.51,7.597 h -3.69 v 5.196"
         style="fill:#ed1639;fill-opacity:1;fill-rule:nonzero;stroke:none"
         id="path106" />
      <path
         d="m 2978.5,208.945 c 0,8.203 -2.1,15.293 -10.7,15.293 -8.59,0 -11.09,-6.894 -11.09,-15.293 z m -21.79,-5.789 c 0,-6.797 0.1,-19.191 12.39,-19.191 7.3,0 10.3,3.898 10.39,11.398 h 10.2 c -0.1,-8.605 -5.1,-17.199 -21.79,-17.199 -16.78,0 -23.98,10.996 -23.98,25.793 0,14.785 7.2,25.781 23.98,25.781 16.1,0 22.8,-7.492 22.8,-24.289 v -2.293 h -33.99"
         style="fill:#ed1639;fill-opacity:1;fill-rule:nonzero;stroke:none"
         id="path108" />
      <path
         d="m 3034.09,208.945 c 0,8.203 -2.1,15.293 -10.69,15.293 -8.59,0 -11.09,-6.894 -11.09,-15.293 z m -21.78,-5.789 c 0,-6.797 0.09,-19.191 12.39,-19.191 7.29,0 10.29,3.898 10.39,11.398 h 10.2 c -0.1,-8.605 -5.1,-17.199 -21.79,-17.199 -16.79,0 -23.99,10.996 -23.99,25.793 0,14.785 7.2,25.781 23.99,25.781 16.09,0 22.79,-7.492 22.79,-24.289 v -2.293 h -33.98"
         style="fill:#ed1639;fill-opacity:1;fill-rule:nonzero;stroke:none"
         id="path110" />
      <path
         d="m 3053.12,228.137 c 5.7,0 14.59,0.605 19.49,1.199 v -11.094 h 0.19 c 3.4,8.098 9.11,11.496 17.2,11.496 2.89,0 5.7,-0.402 7.99,-1.203 v -14.383 h -9.59 c -0.1,4.989 -1.2,7.793 -5.1,7.793 -4.6,0 -9.2,-6.203 -9.2,-14.59 v -16.398 c 0,-4.598 0.51,-6.297 5.61,-6.297 h 5.29 v -4.894 h -31.88 v 4.894 h 3.2 c 5.1,0 5.6,1.699 5.6,6.297 v 24.387 c 0,6.699 -0.5,7.597 -4.51,7.597 h -4.29 v 5.196"
         style="fill:#ed1639;fill-opacity:1;fill-rule:nonzero;stroke:none"
         id="path112" />
      <path
         d="m 3117.81,252.727 c 4.7,0 7.3,-3.196 7.3,-7.493 0,-4.304 -2.6,-7.5 -7.3,-7.5 -4.69,0 -7.29,3.196 -7.29,7.5 0,4.297 2.6,7.493 7.29,7.493 z m -14.09,-24.59 c 5.1,0 13.99,0.605 20.38,1.199 v -38.379 c 0,-4.598 0.51,-6.297 5.61,-6.297 h 2.6 v -4.894 h -29.19 v 4.894 h 3.2 c 5.1,0 5.6,1.699 5.6,6.297 v 24.387 c 0,6.699 -0.5,7.597 -4.51,7.597 h -3.69 v 5.196"
         style="fill:#ed1639;fill-opacity:1;fill-rule:nonzero;stroke:none"
         id="path114" />
      <path
         d="m 3137.12,228.137 c 5.1,0 13.99,0.605 18.89,1.199 v -11.094 h 0.19 c 3.4,8.098 9.1,11.496 17.2,11.496 9.8,0 17.38,-4.394 17.38,-15.187 v -23.594 c 0,-4.598 0.51,-6.297 5.61,-6.297 h 2.6 v -4.894 h -27.4 v 4.894 h 1.41 c 5.1,0 5.6,1.699 5.6,6.297 v 20.695 c 0,7.09 -3.4,10.293 -8.8,10.293 -7.3,0 -12.3,-5.195 -12.3,-14.59 v -16.398 c 0,-4.598 0.51,-6.297 5.61,-6.297 h 1.39 v -4.894 h -27.98 v 4.894 h 3.2 c 5.1,0 5.59,1.699 5.59,6.297 v 24.387 c 0,6.699 -0.49,7.597 -4.5,7.597 h -3.69 v 5.196"
         style="fill:#ed1639;fill-opacity:1;fill-rule:nonzero;stroke:none"
         id="path116" />
      <path
         d="m 3228,224.238 c -5.6,0 -8.59,-3.289 -8.59,-11.992 0,-8.992 3.39,-12.793 8.7,-12.793 5.39,0 7.89,4.199 7.89,12.891 0,9.101 -3.2,11.894 -8,11.894 z m -0.1,-43.672 c -8.99,0 -11.99,-4.394 -11.99,-9.695 0,-4.894 3.3,-8.898 11.69,-8.898 9.5,0 12.6,4.804 12.6,9.394 0,5.098 -3.6,9.199 -12.3,9.199 z m 26.79,41.973 h -9.7 v -0.195 c 2.5,-1.903 4.41,-5.801 4.41,-10.098 0,-7.996 -4.41,-15.488 -18.4,-17.793 l -2.39,-0.39 c -3.31,-0.508 -7.81,-1.004 -7.81,-4.305 0,-2.793 1.81,-3.789 12.8,-4.59 9.39,-0.703 18.79,-2.102 18.79,-13.898 0,-9.297 -9.19,-14.793 -25.98,-14.793 -15.79,0 -22.7,6.394 -22.7,14.492 0,8.094 8.3,11.797 15.3,12.5 v 0.195 c -6.69,1.297 -9,2.996 -9,6.395 0,3.203 2.9,5.703 9.8,6.3 v 0.196 c -7.49,2.402 -13.2,6.902 -13.2,15.996 0,9.695 8.6,17.187 21.69,17.187 4.2,0 8.8,-1.3 11.59,-2.101 l 14.8,1.301 v -6.399"
         style="fill:#ed1639;fill-opacity:1;fill-rule:nonzero;stroke:none"
         id="path118" />
    </g>
  </g>
</svg>
